<?xml version="1.0" standalone="no"?>
<!DOCTYPE svg PUBLIC "-//W3C//DTD SVG 1.1//EN" "http://www.w3.org/Graphics/SVG/1.1/DTD/svg11.dtd" >
<!--
2013-9-30: Created.
-->
<svg>
<metadata>
Created by iconfont
</metadata>
<defs>

<font id="iconfont" horiz-adv-x="1024" >
  <font-face
    font-family="iconfont"
    font-weight="500"
    font-stretch="normal"
    units-per-em="1024"
    ascent="896"
    descent="-128"
  />
    <missing-glyph />
    
    <glyph glyph-name="add" unicode="&#58949;" d="M903.7 453.1H581.1V775.7c0 38-31.1 69.1-69.1 69.1s-69.1-31.1-69.1-69.1v-322.6H120.3c-38 0-69.1-31.1-69.1-69.1s31.1-69.1 69.1-69.1h322.6v-322.6c0-38 31.1-69.1 69.1-69.1s69.1 31.1 69.1 69.1V314.9h322.6c38 0 69.1 31.1 69.1 69.1s-31.1 69.1-69.1 69.1"  horiz-adv-x="1024" />

    
    <glyph glyph-name="annotation" unicode="&#58950;" d="M918.5 158.8c0-48.8-41.6-88.6-92.7-88.6H197.2c-51.2 0-92.6 39.7-92.7 88.6V613c0 49 41.6 88.8 92.7 88.8h628.7c51 0 92.7-39.8 92.7-88.8l-0.1-454.2z m68.6-90h-33.5c20.1 26 32.4 57.9 32.4 92.8V610.2c-0.1 86.7-73.5 156.9-164.1 157.1h-621c-90.6-0.1-164-70.4-164.1-157.1v-448.6c0-34.8 12.3-66.7 32.5-92.8H36c-19.9 0-36-15.4-36-34.4S16.1 0 36 0h951.1c19.9 0 36 15.4 36 34.4-0.1 19-16.2 34.4-36 34.4zM313.3 190.1c24.7-25.9 64.6-25.9 89.3 0L335 261.2l-30.3-35.5c-7.8-7.3-7.8-18.2-0.9-25.5l9.5-10.1z m364.2 407.2c-12.7 0-24.8-5.3-33.8-14.7l-268.6-281 67.6-71.1 268.6 281c9 9.4 14 22.2 14 35.5 0 27.8-21.4 50.3-47.8 50.3z"  horiz-adv-x="1024" />

    
    <glyph glyph-name="agenda" unicode="&#58951;" d="M811.9 254.8c0-44.7-35.5-81.1-79-81.1H286.7c-43.6 0-79 36.4-79 81.1V750.5h604.2v-495.7z m57.5 554.7H114.1c-15.8 0-28.7-13.3-28.7-29.5s12.9-29.5 28.7-29.5h36.1v-495.7c0-77.3 61.3-140.1 136.5-140.1h198.4V-23c0-16.2 12.9-29.5 28.7-29.5 15.8 0 28.7 13.3 28.7 29.5V114.7h190.2c75.3 0 136.5 62.9 136.5 140.1V750.5h36.1c15.8 0 28.7 13.3 28.7 29.5s-12.9 29.5-28.7 29.5h-35.9zM329.3 571.7h365.3c16.9 0 30.7 15.4 30.7 34.1S711.5 640 694.7 640H329.3c-16.9 0-30.7-15.4-30.7-34.1s13.9-34.2 30.7-34.2M330.3 443.7h278c17.4 0 31.7 15.3 31.7 34.1s-14.2 34.1-31.7 34.1h-278c-17.4 0-31.7-15.4-31.7-34.1 0.1-18.7 14.3-34.1 31.7-34.1M322.4 315.7h208.5c13.1 0 23.7 15.3 23.7 34.1s-10.7 34.1-23.7 34.1H322.4c-13.1 0-23.7-15.4-23.7-34.1 0-18.7 10.7-34.1 23.7-34.1"  horiz-adv-x="1024" />

    
    <glyph glyph-name="center" unicode="&#58952;" d="M0 896v-1024h1024V896H0z m981.333-981.333H42.667V853.333h938.667v-938.666zM469.333 0h85.334V128h298.666V341.333H554.667v85.334H768V640H554.667V768h-85.334v-128H256v-213.333h213.333v-85.334H170.667V128h298.666z"  horiz-adv-x="1024" />

    
    <glyph glyph-name="boot_up" unicode="&#58953;" d="M985.62-51.201H38.421c-21.12 0-38.399-17.28-38.399-38.399 0-21.118 17.28-38.398 38.399-38.398H985.62c21.12 0 38.399 17.28 38.399 38.398 0 21.119-17.28 38.399-38.399 38.399zM326.033 320.331l157.498-24.767V437.543H326.033zM483.528 616.523L326.03 591.724v-117.917h157.498zM894.842 895.966h-765.67C57.879 895.966 0.026 838.144 0.026 766.818V145.24c0-71.326 57.853-129.148 129.147-129.148h765.67c71.326 0 129.179 57.822 129.179 129.148V766.818c0 71.326-57.854 129.148-129.18 129.148z m52.382-750.726c0-28.928-23.55-52.351-52.382-52.351h-765.67c-28.895 0-52.318 23.55-52.318 52.351V766.818c0 28.928 23.519 52.351 52.318 52.351h765.67c28.927 0 52.382-23.552 52.382-52.351V145.24zM519.793 289.846l178.234-28.063v175.77H519.793zM698.02 650.281L519.787 622.25v-148.443H698.02z"  horiz-adv-x="1024" />

    
    <glyph glyph-name="approval" unicode="&#58954;" d="M774.6 121.4c34.1 34.2 61 73.9 79.6 118 19.3 45.7 29.1 94.3 29.1 144.5s-9.8 98.8-29.1 144.5c-18.7 44.1-45.5 83.9-79.6 118-34.1 34.1-73.8 60.9-118.1 79.6-45.7 19.4-94.3 29.2-144.5 29.2s-98.8-9.8-144.5-29.2c-44.2-18.7-84-45.5-118.1-79.6s-60.9-73.8-79.6-118c-19.3-45.8-29.2-94.4-29.2-144.5 0-50.1 9.9-98.8 29.2-144.5 18.7-44.2 45.5-83.9 79.6-118 34.1-34.1 73.8-60.9 118.1-79.6 91.5-38.7 197.5-38.7 289 0 44.2 18.7 84 45.5 118.1 79.6zM512 844.8c254.1 0 460.8-206.7 460.8-460.8S766.1-76.8 512-76.8 51.2 129.9 51.2 384 257.9 844.8 512 844.8z m68-275.3l207.9-154.1C798 408 804 396.1 804 383.5c0-12.6-5.9-24.4-16-32L580.1 196.4c-6.9-5.1-15.2-7.9-23.8-7.9-12.1 0-24.1 5.5-31.9 16-13.2 17.6-9.5 42.6 8.1 55.8l111 82.8H259.9c-22 0-39.8 17.8-39.8 39.9 0 21.9 17.8 39.8 39.8 39.8h384.3l-111.7 82.8c-17.7 13.1-21.4 38.1-8.3 55.7 13.2 17.6 38.1 21.3 55.8 8.2z"  horiz-adv-x="1024" />

    
    <glyph glyph-name="canceling_screen" unicode="&#58955;" d="M358.4-25.6h307.2L512 179.2 358.4-25.6z m187.7 460.8l119.5-119.5-34.1-34.1L512 401.1 392.5 281.6l-34.1 34.1 119.5 119.5-119.5 119.5 34.1 34.1L512 469.3l119.5 119.5 34.1-34.1-119.5-119.5zM144.2 793.6h735.6c79.5-0.1 144.2-62.1 144.2-138.2V215c-0.1-76.1-64.8-138.2-144.2-138.3H717.6c-26.3 0-47.7 20.5-47.7 45.7 0 25.2 21.4 45.7 47.7 45.7h162.2c26.9 0 48.9 21.1 48.9 46.9V655.4c0 25.8-22 46.8-48.9 46.8H144.2c-26.9 0-48.8-21-48.9-46.8v-440.3c0-25.8 21.9-46.8 48.9-46.9h166.6c26.3 0 47.7-20.5 47.7-45.7 0-25.2-21.4-45.7-47.7-45.7H144.2C64.7 76.9 0.1 138.9 0 215.1V655.4c0.1 76.1 64.7 138.1 144.2 138.2z"  horiz-adv-x="1024" />

    
    <glyph glyph-name="choice" unicode="&#58956;" d="M393.8 228.5l459.6 459.6c30 30 78.6 30 108.6 0s30-78.6 0-108.6L461.1 78.6c-1.4-1.8-2.8-3.6-4.4-5.4-0.8-0.9-1.7-1.8-2.5-2.7-30.4-30.4-79.4-31.7-111.3-2.8L57 326.3c-29.9 27.1-32.2 73.2-5.2 103.2 0.8 0.9 1.7 1.8 2.5 2.7 30.4 30.4 79.4 31.7 111.3 2.8l228.2-206.5z"  horiz-adv-x="1024" />

    
    <glyph glyph-name="chat" unicode="&#58957;" d="M426.5 554.6c-23.5-0.1-42.5-19.2-42.5-42.6 0-23.4 19-42.5 42.5-42.7 23.6 0 42.8 19.1 42.8 42.7s-19.1 42.6-42.8 42.6M597.2 554.6c-23.5-0.1-42.5-19.2-42.5-42.7 0-23.4 19-42.5 42.5-42.7 23.6 0 42.8 19.1 42.8 42.7 0 23.7-19.2 42.7-42.8 42.7M767.8 554.6c-23.5-0.1-42.5-19.2-42.5-42.7 0-23.4 19-42.5 42.5-42.7 23.6 0 42.8 19.1 42.8 42.7 0.1 23.7-19.1 42.7-42.8 42.7M876.5 332.2c0-30.7-24.5-55.6-54.5-55.6h-52.2l-62.5-74.1-66.2 74.1h-268c-30.1 0-54.5 24.9-54.5 55.6V655.1c0 30.7 24.5 55.6 54.5 55.6H822c30.1 0 54.5-24.9 54.5-55.6v-322.9z m-36.9 433.9h-484c-50.4 0-91.5-41.8-91.5-93.3v-358.3c0-51.4 41-93.3 91.5-93.3h257.1l67-75c7.2-8 17.3-12.6 28.5-12.6 10.8 0.2 21.1 5 28.1 13.4l62.7 74.2h40.6c50.4 0 91.5 41.8 91.5 93.3V672.8c-0.1 51.5-41.1 93.3-91.5 93.3zM611.6 135H388.3l-69.2-70-65.3 70h-54.5c-31.4 0-57 23.6-57 52.5v305c0 29 25.6 52.5 57 52.5 15.6 0 28.4 11.7 28.4 26.1s-12.7 26.1-28.4 26.1h-18.4c-52.7 0-95.6-39.5-95.6-88.1v-338.4c0-48.6 42.9-88.1 95.6-88.1h42.4l65.5-70.1c7.4-7.9 18.1-12.5 29.4-12.7h0.6c11.1 0 21.7 4.3 29.2 11.9l70 70.9h193.6c15.6 0 28.4 11.7 28.4 26.1 0 14.6-12.7 26.3-28.4 26.3"  horiz-adv-x="1024" />

    
    <glyph glyph-name="data" unicode="&#58958;" d="M148.8 669.4c0 17.6 12.5 31.9 27.9 31.9h285c2 0 3.8-1.2 4.8-3.2l94.1-186.9c5.5-10.9 16.2-17.7 28-17.7h244.3c16.2 0 42.3-27.5 42.3-44.6v-350.4c0-17.5-12.5-31.8-27.9-31.8H176.6c-15.4 0-27.9 14.3-27.9 31.8V669.4z m681.7-109.2H607.7l-41.9 83.3h230.5c15.7 0 34.3-27.1 34.3-50l-0.1-33.3z m63.4-25.3v58.6c0 55.1-41.8 116.7-97.7 116.7H532.1l-9.5 19c-11.9 23.9-35.2 38.8-60.9 38.8h-285c-50.3 0-91.3-44.2-91.3-98.6v-570.8c0-54.4 41-98.6 91.3-98.6h670.7c50.3 0 91.3 44.2 91.3 98.6V448.9c0 29.5-17.5 63-44.8 86z"  horiz-adv-x="1024" />

    
    <glyph glyph-name="decline" unicode="&#58959;" d="M460.8 87.7V794.5c0 28.3 22.9 51.2 51.2 51.2 28.3 0 51.2-22.9 51.2-51.2v-706.8l219.1 211c19.9 19.2 51.5 19.1 71.3-0.2l1.6-1.6c19.9-19.4 20.3-51.2 0.9-71.1l-1.1-1.1-298.3-287.2A50.883 50.883 0 0 0 512-76c-15.7-2.9-32.4 1.6-44.7 13.5L169.1 224.7l-1.1 1.1c-19.4 19.9-19 51.7 0.9 71.1l1.6 1.6c19.8 19.3 51.4 19.4 71.3 0.2l219-211z"  horiz-adv-x="1024" />

    
    <glyph glyph-name="conference_room" unicode="&#58960;" d="M602.8 154.2c24.1 23.8 37.9 56.3 37.9 90.4-0.1 70.3-57.5 127.4-127.8 127.4h-0.1c-70.3 0-127.7-57.1-127.9-127.3 0-34 13.7-66.5 37.9-90.4-50.3-27.7-84.6-77-93.1-133.8h-64.2c-110.9 0-201.1 87.9-201.1 195.9s90.2 195.9 201.2 195.9h492.7c110.9 0 201.2-87.9 201.2-195.9s-90.3-195.9-201.3-195.9h-62.4c-8.4 56.8-42.7 106-93 133.7m-90-36.9c58.6-0.1 108.8-40.4 121.7-96.9H391.1c12.9 56.5 63.1 96.8 121.7 96.9m65.9 127.5c0-36.3-29.6-66.5-65.9-67.3-37.1 0.1-67.3 30.3-67.3 67.4 0 37.1 30.2 67.3 67.2 67.3 36.4-0.8 66-31 66-67.4m-65.8 371.4c-36.4 0.8-66 31-66 67.4 0 36.3 29.5 66.5 65.9 67.3 36.3-0.9 65.9-31.1 65.9-67.3 0-36.4-29.6-66.6-65.8-67.4m-0.1-60.2c51.8 0 98.8-32.8 117-80.7h-234c18.4 48.5 64.5 80.7 117 80.7m245.6-80.7h-65.6c-12.2 50.4-44.7 92.7-90 117.6 24.1 23.8 37.9 56.3 38 90.4-0.2 70.2-57.5 127.4-127.9 127.4h-0.1c-70.3 0-127.7-57.1-127.9-127.3 0-34 13.7-66.5 37.9-90.4-45.4-25-77.8-67.3-90-117.6h-67.3c-70.8 0-137.4-26.9-187.6-75.9C27.7 350.5 0 285.4 0 216.3c0-142.8 119.1-259 265.6-259h492.7c146.5 0 265.6 116.2 265.6 259 0.1 142.8-119 259-265.5 259"  horiz-adv-x="1024" />

    
    <glyph glyph-name="clone" unicode="&#58961;" d="M880 844.8c51.2 0 92.8-41.6 92.8-92.8v-582.3c0-51.2-41.6-92.8-92.8-92.8-22.1 0-40 18-40 40s18 40 40 40c7 0 12.8 5.7 12.8 12.8V752c0 7-5.7 12.8-12.8 12.8H297.6c-7 0-12.8-5.7-12.8-12.8 0-22.1-17.9-40-40-40s-40 18-40 40c0 51.2 41.6 92.8 92.8 92.8H880zM707.3 567.4c0 6.6-5.4 12-12 12H139.9c-6.6 0-12-5.4-12-12v-555.5c0-6.6 5.4-12 12-12h555.4c6.6 0 12 5.4 12 12V567.4z m-12 88.7c48.9 0 88.7-39.8 88.7-88.7v-555.5c0-48.9-39.8-88.7-88.7-88.7H139.9c-48.9 0-88.7 39.8-88.7 88.7V567.4c0 48.9 39.8 88.7 88.7 88.7h555.4zM580.9 340.7c18.5 0 33.5-15 33.5-33.5s-15-33.5-33.5-33.5H468.7v-112.2c0-18.5-15-33.5-33.4-33.5-18.6 0-33.5 15-33.5 33.5V273.7H289.5c-18.5 0-33.5 15-33.5 33.5s15 33.5 33.5 33.5h112.2V452.9c0 18.5 15 33.5 33.5 33.5s33.4-15 33.4-33.5v-112.2h112.3z"  horiz-adv-x="1024" />

    
    <glyph glyph-name="details" unicode="&#58962;" d="M902.7 388.4C846.9 320.5 687.2 147.7 512 147.7c-175.3 0-334.9 172.8-390.7 240.7C186.6 468.1 339.8 629 512 629c175.3 0 334.9-172.8 390.7-240.6z m101 29.9c-38.3 51.2-242.3 307-491.7 307-251.3 0-453.5-255.5-493.1-308.8L0 388.4l20.2-29.9c38.3-51.3 242.3-307 491.8-307 249.3 0 453.3 255.7 493.1 308.8l18.9 28.2-20.3 29.8zM600.1 384c0-48.6-39.5-88.1-88.1-88.1s-88.1 39.6-88.1 88.1 39.5 88.1 88.1 88.1c48.6 0 88.1-39.6 88.1-88.1M512 554.7c-94.1 0-170.6-76.6-170.6-170.7S418 213.4 512 213.4c94.1 0 170.7 76.6 170.7 170.6 0 94.1-76.6 170.7-170.7 170.7"  horiz-adv-x="1024" />

    
    <glyph glyph-name="control" unicode="&#58963;" d="M502.5 142.8c-22.8 0-45.1 21.7-45.1 43.9 0 22.1 22.3 43.9 45.1 43.9s45.1-21.7 45.1-43.9-22.4-43.9-45.1-43.9m0 155.1c-63 0-114.4-49.9-114.4-111.3s51.3-111.3 114.4-111.3 114.4 49.9 114.4 111.3c-0.1 61.4-51.4 111.3-114.4 111.3M847.9 504.8c-22.8 0-45.1 21.7-45.1 43.9 0 22.1 22.3 43.9 45.1 43.9s45.1-21.7 45.1-43.9-22.3-43.9-45.1-43.9m77.3 130.9c-18.3 16.1-41.5 24.7-66.3 24.7-3.5 0-7-0.2-10.5-0.5-63.6 0-114.9-50-114.9-111.3s51.3-111.3 114.4-111.3 114.4 49.9 114.4 111.3c0 34.7-13.5 66.4-37.1 87.1M502.5 828c-17.2 0-34.7-17-34.7-33.7v-400.7c0-16.7 17.5-33.7 34.7-33.7 17.2 0 34.7 17 34.7 33.7V794.2C537.1 811 519.6 828 502.5 828M502.5-66.8c17.2 0 34.7 17 34.7 33.7v25.9c0 16.7-17.5 33.7-34.7 33.7-17.2 0-34.7-17-34.7-33.7v-25.9c0-16.7 17.5-33.7 34.7-33.7M882.6 354.7c0 16.7-17.5 33.7-34.7 33.7-17.2 0-34.6-17-34.6-33.7v-387.8c0-16.7 17.5-33.7 34.6-33.7 17.2 0 34.7 17 34.7 33.7V354.7zM157-66.8c17.2 0 34.7 17 34.7 33.7V173.7c0 16.2-10.8 33.7-34.7 33.7-17.2 0-34.6-17-34.6-33.7v-206.8c0-16.7 17.5-33.7 34.6-33.7M157 828c-23.8 0-34.6-17.5-34.6-33.7v-206.8c0-16.7 17.5-33.7 34.6-33.7s34.7 17 34.7 33.7V794.2c0 16.3-10.9 33.8-34.7 33.8M157 336.7c-22.7 0-45.1 21.7-45.1 43.9 0 22.1 22.3 43.9 45.1 43.9s45.1-21.7 45.1-43.9-22.3-43.9-45.1-43.9m0 155.2c-63 0-114.4-49.9-114.4-111.3S93.9 269.3 157 269.3s114.4 49.9 114.4 111.3c0 61.3-51.3 111.3-114.4 111.3M813.3 761.9c0-23 11-33.7 34.7-33.7 17.2 0 34.6 17 34.6 33.7v32.3c0 16.7-17.5 33.7-34.6 33.7-17.2 0-34.7-17-34.7-33.7v-32.3z"  horiz-adv-x="1024" />

    
    <glyph glyph-name="end_sign_in" unicode="&#58964;" d="M716.4 587.4c-13.2 0-25.7 5.1-35.2 14.3-9.5 9.3-14.7 21.6-14.7 34.7V795.8c0 27 22.4 49 49.9 49h0.2c23.4 0 43.9-16.4 48.7-39.1 0.7-3.4 1.1-6.6 1.1-9.9v-159.4c0-13-5.4-25.6-14.6-34.7-9.2-9.1-22-14.3-35.1-14.3h-0.3z m-444.6 17.4c-7.8 9.2-11.9 20-11.9 31.5V795.7c0 27 22.4 49.1 50 49.1 4.3-0.1 8.4-0.7 12.4-1.7 8.4-2 16.5-6.4 22.7-12.6 2.4-2.2 4.5-4.8 6.3-7.5 5.4-7.8 8.4-17.3 8.4-27.2v-159.5c0-13.2-5.2-25.5-14.6-34.7-9.3-9.1-22.2-14.3-35.3-14.3-14.5-0.1-28.3 6.3-38 17.5z m750.2 35l2-589.1c0-69.1-58.2-127.4-127.1-127.4H126.8c-21.1 0-42 5.3-60.4 15.5C26-39.3 0 4.6 0 50.6V637.9c0 13.4 2.6 26.4 4.8 34.8 14.3 55.4 69.4 94.1 134.2 94.1h29.7c27.1 0 49.2-21.7 49.2-48.4 0-13-5.1-25.2-14.4-34.3-9.1-9-21.8-14.2-34.7-14.2H139c-18.1 0-39.2-8.3-39.2-31.9v-587.4c0-13.9 10.9-28.9 27.2-28.9h769.8c15 0 27.3 13 27.3 28.9v49c0.1 94.5-0.1 189-0.2 283.5-0.1 85.1-0.2 170.1-0.2 255.2-1 24.6-18.8 29.4-58 29.4h-4.3l-7.2-0.1c-27.2 0-49.3 21.8-49.3 48.6s22.1 48.6 49.3 48.6h29.7c20.5 0 44.7-1.9 70.6-15.6 41.7-22.1 65.7-60.8 67.6-109l-0.1-0.4z m-569.6 27.7c-17.5 0-33.7 9.2-42.5 24.1-8.9 15.1-8.9 33.8 0 48.9 8.8 14.8 25 24.1 42.6 24.1H571c27.1 0 49.2-21.8 49.2-48.6s-22-48.6-49.2-48.6H453l-0.6 0.1z m208.9-451.2c16.8-16.6 16.8-43.5 0-60.1-16.9-16.5-44.1-16.6-61 0l-88.3 87-88.3-87.1c-16.9-16.6-44.1-16.5-61 0a42.133 42.133 0 0 0 0 60.1l88.4 87.1-88.4 87.2c-16.7 16.6-16.7 43.5 0 60.1 8.1 8 19 12.4 30.5 12.4s22.4-4.4 30.5-12.4l88.3-87.1 88.3 87.1c16.2 16.1 44.8 16.1 61 0 16.7-16.6 16.7-43.5 0-60.1L573 303.4l88.3-87.1z"  horiz-adv-x="1024" />

    
    <glyph glyph-name="download" unicode="&#58965;" d="M447.6 169.9c11.4-11.4 27.1-16.6 42.8-14.6l8.9-0.4c3.7-0.8 7.5-1.3 11.4-1.3s7.7 0.4 11.4 1.3l8.9 0.4c15.7-2 31.4 3.2 42.8 14.6l253.4 253.4c20 20 20 52.4 0 72.4s-52.4 20-72.4 0L561.9 302.8V768c0 28.3-22.9 51.2-51.2 51.2-28.3 0-51.2-22.9-51.2-51.2v-465.2L266.6 495.7c-20 20-52.4 20-72.4 0s-20-52.4 0-72.4l253.4-253.4zM921.6 76.8H102.4c-28.3 0-51.2-22.9-51.2-51.2 0-28.3 22.9-51.2 51.2-51.2h819.2c28.3 0 51.2 22.9 51.2 51.2 0 28.3-22.9 51.2-51.2 51.2z"  horiz-adv-x="1024" />

    
    <glyph glyph-name="explain" unicode="&#58966;" d="M512 844.8C257.5 844.8 51.2 638.5 51.2 384S257.5-76.8 512-76.8 972.8 129.5 972.8 384 766.5 844.8 512 844.8z m0-819.2c-197.9 0-358.4 160.5-358.4 358.4S314.1 742.4 512 742.4 870.4 581.9 870.4 384 709.9 25.6 512 25.6zM512 486.4c-28.3 0-51.2-22.9-51.2-51.2v-256c0-28.3 22.9-51.2 51.2-51.2 28.3 0 51.2 22.9 51.2 51.2v256c0 28.3-22.9 51.2-51.2 51.2zM512 588.8m-51.2 0a51.2 51.2 0 1 1 102.4 0 51.2 51.2 0 1 1-102.4 0Z"  horiz-adv-x="1024" />

    
    <glyph glyph-name="edit" unicode="&#58967;" d="M865.2 417c-26.7 0-48.4-21.7-48.4-48.5v-224c0-13.3-5.1-25.7-14.6-35.1-9.4-9.4-21.8-14.5-35.1-14.5H274.3c-13.3 0-25.7 5.2-35.1 14.6-9.4 9.4-14.6 21.8-14.6 35.1v482c0 13.3 5.2 25.8 14.6 35.2 9.4 9.4 21.8 14.5 35.1 14.5h298.9c26.7 0 48.4 21.8 48.4 48.5s-21.7 48.5-48.4 48.5H274.3c-39.1 0-75.8-15.2-103.4-43-27.6-27.7-42.9-64.5-42.9-103.7v-481.9c0-80.9 65.7-146.7 146.3-146.7h492.9c80.7 0 146.3 65.8 146.3 146.7V368.6c0 26.7-21.7 48.4-48.3 48.4zM937.2 732.4c-4.2 16.4-16.8 29.4-32.9 33.9s-33.4 0-45.4-11.9l-419.2-418c-17.5-18.6-17.3-47.7 0.5-66.1 9.2-9.5 21.3-14.3 33.4-14.3 11.3 0 22.6 4.1 31.7 12.6l419.4 418c11.9 11.8 16.7 29.4 12.5 45.8z"  horiz-adv-x="1024" />

    
    <glyph glyph-name="end" unicode="&#58968;" d="M511.5 330.1c-15.9 0-29.4 5.6-40.7 16.9-11.2 11.2-16.9 24.8-16.9 40.6V735.1c0 15.8 5.7 29.6 16.9 41.1 11.3 11.6 24.9 17.4 40.7 17.4 16.5 0 30.4-5.8 41.7-17.4s16.9-25.3 16.9-41.1v-347.5c0-15.8-5.7-29.4-16.9-40.6-11.3-11.3-25.2-16.9-41.7-16.9m235.3 337.3c27.5-19.5 51.9-41.6 73.2-66.3s39.6-51.4 54.9-80c15.3-28.7 26.9-59 34.8-91 7.9-32 11.9-64.5 11.9-97.4 0-56.7-10.8-109.9-32.5-159.5-21.7-49.7-50.9-93-87.9-129.8-36.9-36.9-80.3-66.2-130-87.8-49.7-21.7-103-32.5-159.7-32.5-56.1 0-109 10.8-158.8 32.5-49.7 21.6-93.2 50.9-130.4 87.8s-66.5 80.2-87.9 129.8C113 222.9 102.3 276 102.3 332.7c0 32.3 3.8 64 11.5 95.1s18.4 60.6 32.5 88.7c14 28 31.4 54.2 52.1 78.6 20.8 24.4 44 46.3 69.6 65.8 13.4 9.7 27.9 13.4 43.5 11 15.6-2.4 28.2-10.1 38-22.8s13.4-27.2 11-43-10.1-28.6-22.9-38.4c-38.5-28-67.9-62.5-88.4-103.3-20.4-40.8-30.7-84.7-30.7-131.6 0-40.2 7.7-78.2 22.9-113.8 15.2-35.6 36.1-66.7 62.7-93.2 26.5-26.5 57.6-47.6 93.4-63.1 35.7-15.5 73.7-23.3 113.9-23.3s78.2 7.8 113.9 23.3 66.8 36.6 93.4 63.1c26.6 26.5 47.6 57.6 63.2 93.2 15.6 35.7 23.4 73.6 23.4 113.8 0 47.5-11 92.5-33 134.9-22 42.3-52.8 77.2-92.4 104.7-13.5 9.1-21.5 21.6-24.3 37.5-2.7 15.9 0.4 30.5 9.6 43.9 9.1 12.8 21.7 20.6 37.6 23.3 15.9 2.7 30.5-0.5 44-9.7"  horiz-adv-x="1024" />

    
    <glyph glyph-name="delete" unicode="&#58969;" d="M603.533 101.867c-25.7 0-46.6 21.9-46.6 48.8v329.2c0 26.9 20.9 48.8 46.6 48.8 25.7 0 46.6-21.9 46.6-48.8v-329.2c0-26.9-20.9-48.8-46.6-48.8z m-180.3 0c-25.7 0-46.6 21.9-46.6 48.8v329.2c0 26.9 20.9 48.8 46.6 48.8s46.6-21.9 46.6-48.8v-329.2c0-26.9-20.8-48.8-46.6-48.8z m298.4 503.7h-417.1v-527.2c0-18.5 14.3-33.5 32-33.5h353.2c17.6 0 32 15 32 33.5l-0.1 527.2z m164.1 96.9c26.1 0 46.5-21.1 46.5-48.1 0-26.9-20.9-48.8-46.5-48.8h-70.9v-527.2c0-72.3-56.1-131.1-125.2-131.1h-353.1c-69 0-125.1 58.8-125.1 131.1v526.5h-71c-25.7 0-46.5 21.9-46.5 48.8 0 27 20.9 48.8 46.5 48.8h745.3z m-515.1 53.9c-25.5 0-46.3 21.7-46.3 48.5s20.7 48.5 46.3 48.5h284.9c25.5 0 46.3-21.7 46.3-48.5 0-26.7-20.8-48.5-46.3-48.5h-284.9z"  horiz-adv-x="1024" />

    
    <glyph glyph-name="enlarge" unicode="&#58970;" d="M407.43329 797.8c-105.9-19.2-201.5-85.6-257.9-177-57-91.1-73.2-206.4-43.5-309.7 34.6-128.6 141.3-234.9 270.1-269 73.5-20.6 152.9-18.5 225.4 5.3C724.93329 87 824.63329 193 855.83329 318.8c41 149.8-19.6 319.8-145.7 410.2-85.3 64-198.1 89-302.7 68.8m-257.5-33.2C247.43329 858 386.13329 906.7 520.73329 894c114-8.9 224.1-61.2 303.3-143.6 94.4-95.5 144.3-232.5 134.6-366.3-5.8-95.5-42.1-188.7-101.1-264 50.4-51.2 102.2-101 151.9-152.8 27.9-27.6 13.8-79.6-22.9-91.4-21.7-9.3-47-1-62.5 15.7-49.6 48.7-98.2 98.4-147.7 147.3-94.7-74.3-218-112.3-338.2-100.2-122.1 9.5-238.8 69.4-319 161.6C31.03329 199.3-12.06671 336.2 2.93329 467.6c11.4 112.4 64.8 219.7 147 297M438.43329 575c7.1 42.7 73.9 44.6 83.1 2.2 4.8-39 0.4-78.8 1.9-118.1 38.2-0.5 76.4 0.9 114.6-0.5 43.3-6 46.2-74.1 3.3-83.1-38.9-4.6-78.6-0.3-117.8-1.8-0.6-37.4 0.9-74.8-0.5-112.2-3.2-27.2-35.8-46.8-60.5-32.8-16.2 5.4-24.8 23.2-24.6 39.4-0.3 35.2 0.2 70.4-0.1 105.5-35.2 0.3-70.4-0.3-105.7 0.1-21.4 0.1-43.3 16.2-43.7 38.8-4 24.1 18.3 47.8 42.3 46.6 35.7 0.3 71.4-0.2 107.1 0 0.5 38.6-0.7 77.2 0.6 115.9"  horiz-adv-x="1024" />

    
    <glyph glyph-name="folder" unicode="&#58971;" d="M51.2 727.6c0 8.1 5.4 14.8 12 14.8H379c4.2 0 8.2-2.8 10.4-7.3l71.4-95.1H51.2v87.6z m921.6-635.2c0-36.8-28.7-66.8-64-66.8H115.2c-35.3 0-64 29.9-64 66.8V588.8h857.6c35.3 0 64-30 64-66.8v-429.6z"  horiz-adv-x="1024" />

    
    <glyph glyph-name="file" unicode="&#58972;" d="M614.4 844.8l256-256h-196c-33.1 0-60 26.9-60 60.1V844.8z m256-297.7v-585c0-21.3-18.2-38.7-40.6-39H193.9c-22.4 0.3-40.2 17.5-40.4 39v844c0.2 21.4 18.2 38.7 40.3 38.7h377.9v-182.3c0-80.9 35.5-115.4 118.9-115.4h179.8zM306.1 179.2h412.4c12.3 0 49.5 0 49.5 25.6 0 7.1-2.8 12.9-8.6 17.1-10.2 7.5-27.2 8.5-40.9 8.5H306.1c-13.7 0-50.1 0-50.1-25.6s36.4-25.6 50.1-25.6z m0.9 153.6h307.4c10.2 0 51.2 0 51.2 25.6 0 17-23.9 25.6-51.2 25.6H307c-27.5 0-51-8.6-51-25.6 0-25.6 40.7-25.6 51-25.6z"  horiz-adv-x="1024" />

    
    <glyph glyph-name="history" unicode="&#58973;" d="M529.6 386.5v201c0 20.7-16.4 37.6-36.6 37.6-20.2 0-36.6-16.9-36.6-37.6v-216.4c0.1-8.2 2.8-16.4 7.7-23 1-1.5 2.2-2.7 3.5-3.9l149.1-153.5c14.3-14.5 37.6-14.4 51.8 0.2 14.1 14.7 14.1 38.6-0.2 53.2L529.6 386.5zM512 810.7C276.7 810.7 85.3 619.3 85.3 384S276.7-42.7 512-42.7 938.7 148.7 938.7 384 747.3 810.7 512 810.7z m0-778.3c-193.9 0-351.6 157.7-351.6 351.6S318.1 735.6 512 735.6 863.6 577.9 863.6 384 705.9 32.4 512 32.4z"  horiz-adv-x="1024" />

    
    <glyph glyph-name="focus" unicode="&#58974;" d="M235.9 703c-49.8 0-90.4-43.8-90.4-97.5v-346.8c0-53.8 40.5-97.5 90.4-97.5h542.2c49.8 0 90.4 43.8 90.4 97.5V605.5c0 53.8-40.5 97.5-90.4 97.5H235.9z m542.3-606.8H235.9c-83 0-150.6 72.9-150.6 162.5V605.5c0 89.6 67.6 162.5 150.6 162.5h542.2c83 0 150.6-72.9 150.6-162.5v-346.8c0-89.6-67.5-162.5-150.5-162.5zM512 298.7c-67.3 0-121.9 57.3-121.9 128s54.6 128 121.9 128c67.3 0 121.9-57.3 121.9-128s-54.6-128-121.9-128z m61 128c0 35.3-27.3 64-61 64s-61-28.7-61-64 27.3-64 60.9-64 61.1 28.6 61.1 64zM369.8 469.3c-4-10.6-6.3-22.1-6.3-34.1s2.3-23.5 6.3-34.1H240.9c-18.5 0-33.6 15.4-33.6 34.1s15.1 34.1 33.6 34.1h128.9z m284.4 0h128.9c18.5 0 33.6-15.4 33.6-34.1s-15.1-34.1-33.6-34.1H654.2c4 10.6 6.3 22.1 6.3 34.1s-2.3 23.5-6.3 34.1zM945.2-25.6H74c-17.2 0-31.3 15.4-31.3 34.1s14.1 34.1 31.3 34.1h871.3c17.2 0 31.3-15.4 31.3-34.1s-14.2-34.1-31.4-34.1"  horiz-adv-x="1024" />

    
    <glyph glyph-name="framework" unicode="&#58975;" d="M919.5 213.3H787.1c-34.1 0-61.8-27.7-61.8-61.8v-132.4c0-34.1 27.7-61.8 61.8-61.8h132.4c34.1 0 61.8 27.7 61.8 61.8V151.6c0 34-27.7 61.7-61.8 61.7z m4.5-198.6H782.7V156H924v-141.3zM236.9 213.3H104.5c-34.1 0-61.8-27.7-61.8-61.8v-132.4c0-34.1 27.7-61.8 61.8-61.8h132.4c34.1 0 61.8 27.7 61.8 61.8V151.6c0 34-27.7 61.7-61.8 61.7z m4.4-198.6H100V156h141.3v-141.3zM542.6 301.9V474.6c0 20.6-14.5 37.4-32.4 37.4s-32.4-16.8-32.4-37.4v-172.7c0-20.6 14.5-37.4 32.4-37.4s32.4 16.8 32.4 37.4zM311.5 495.9c-5.6 5.1-12.5 7.6-19.3 7.6-8.6 0-17.1-4-23.1-11.7L135 318.3c-5.2-6.7-7.6-15.2-6.9-23.9 0.7-8.7 4.5-16.6 10.6-22.2 6.2-5.6 13.9-8.3 22-7.5 8 0.8 15.3 4.9 20.4 11.5l134 173.6c10.7 13.8 9.1 34.5-3.6 46.1zM844.1 264.7c7.9-0.7 15.8 1.9 22 7.5s9.9 13.5 10.6 22.2c0.7 8.7-1.7 17.2-6.9 23.9l-134 173.5c-5.2 6.7-12.4 10.8-20.4 11.6-0.9 0.1-1.7 0.1-2.6 0.1-7 0-14-2.7-19.4-7.6-6.1-5.5-10-13.6-10.7-22.2-0.7-8.7 1.8-17.2 7-23.9l134-173.5c5.2-6.8 12.5-10.9 20.4-11.6zM611.5 810.7H411.9c-16.6 0-32.2-6.8-43.9-19.3-11.7-12.5-18.2-29-18.2-46.6v-141.3c0-17.6 6.5-34.2 18.2-46.6 11.7-12.4 27.3-19.3 43.9-19.3h199.5c34.2 0 62.1 29.6 62.1 65.9V744.8c0 36.3-27.8 65.9-62 65.9z m4.5-211.9H407.5V749.5H616v-150.7zM578.2 213.3H445.8c-34.1 0-61.8-27.7-61.8-61.8v-132.4c0-34.1 27.7-61.8 61.8-61.8h132.4c34.1 0 61.8 27.7 61.8 61.8V151.6c0 34-27.7 61.7-61.8 61.7z m4.5-198.6H441.4V156h141.3v-141.3z"  horiz-adv-x="1024" />

    
    <glyph glyph-name="Issue" unicode="&#58976;" d="M285.9 430.2c-17.1 0-31 13.7-31 30.5s13.9 30.5 31 30.5 31-13.7 31-30.5-13.9-30.5-31-30.5z m113.1 0c-17.1 0-31 13.7-31 30.5 0 16.9 13.9 30.5 31 30.5h339.1c17.1 0 31-13.7 31-30.5 0-16.9-13.9-30.5-31-30.5H399zM285.9 291.3c-17.1 0-31 13.7-31 30.5 0 16.9 13.9 30.5 31 30.5h452.2c17.1 0 31-13.7 31-30.5 0-16.9-13.9-30.5-31-30.5H285.9z m0-139.4c-17.1 0-31 13.7-31 30.5s13.9 30.5 31 30.5h452.2c17.1 0 31-13.7 31-30.5s-13.9-30.5-31-30.5H285.9z m-42.1 597.7c-29.6 0-53.8-23.8-53.8-53s24.2-53 53.8-53H834v106H243.8zM190 71.4c0-29.2 24.2-53 53.8-53h564.4c14.3 0 25.2 11.3 25.2 24.9V582.6H243.8c-18.7 0-36.8 4.3-53.8 13.5v-524.7z m53.8-114.1c-63.7 0-115.8 51.3-115.8 114V696.6c0 62.7 52.1 114 115.8 114h592.9c32.9 0 59.3-25.9 59.3-58.4v-736.6c0-32.4-26.3-58.4-59.3-58.4H243.8z"  horiz-adv-x="1024" />

    
    <glyph glyph-name="Issue1" unicode="&#58977;" d="M102.4 896h819.2v-1024L510 128l-407.6-256z"  horiz-adv-x="1024" />

    
    <glyph glyph-name="layout" unicode="&#58978;" d="M349.9 640h25.6c28.3 0 51.2 22.9 51.2 51.2v25.6c0 28.3-22.9 51.2-51.2 51.2h-25.6c-28.3 0-51.2-22.9-51.2-51.2v-25.6c0-28.3 22.9-51.2 51.2-51.2zM648.5 640h25.6c28.3 0 51.2 22.9 51.2 51.2v25.6c0 28.3-22.9 51.2-51.2 51.2h-25.6c-28.3 0-51.2-22.9-51.2-51.2v-25.6c0-28.3 23-51.2 51.2-51.2zM93.9 640h25.6c28.3 0 51.2 22.9 51.2 51.2v25.6c0 28.3-22.9 51.2-51.2 51.2H93.9c-28.3 0-51.2-22.9-51.2-51.2v-25.6c0-28.3 22.9-51.2 51.2-51.2zM930.1 768h-25.6c-28.3 0-51.2-22.9-51.2-51.2v-25.6c0-28.3 22.9-51.2 51.2-51.2h25.6c28.3 0 51.2 22.9 51.2 51.2v25.6c0 28.3-22.9 51.2-51.2 51.2zM930.1 128h-25.6c-28.3 0-51.2-22.9-51.2-51.2v-25.6c0-28.3 22.9-51.2 51.2-51.2h25.6c28.3 0 51.2 22.9 51.2 51.2v25.6c0 28.3-22.9 51.2-51.2 51.2zM674.1 128h-25.6c-28.3 0-51.2-22.9-51.2-51.2v-25.6c0-28.3 22.9-51.2 51.2-51.2h25.6c28.3 0 51.2 22.9 51.2 51.2v25.6c0 28.3-22.9 51.2-51.2 51.2zM119.5 128H93.9c-28.3 0-51.2-22.9-51.2-51.2v-25.6c0-28.3 22.9-51.2 51.2-51.2h25.6c28.3 0 51.2 22.9 51.2 51.2v25.6c0 28.3-23 51.2-51.2 51.2zM375.5 128h-25.6c-28.3 0-51.2-22.9-51.2-51.2v-25.6c0-28.3 22.9-51.2 51.2-51.2h25.6c28.3 0 51.2 22.9 51.2 51.2v25.6c0 28.3-23 51.2-51.2 51.2zM810.7 554.7H213.3C119 554.7 42.6 478.3 42.6 384S119 213.3 213.3 213.3h597.3c94.3 0 170.7 76.4 170.7 170.7s-76.4 170.7-170.6 170.7z m0-239H213.3c-37.7 0-68.3 30.6-68.3 68.3s30.6 68.3 68.3 68.3h597.3c37.7 0 68.3-30.6 68.3-68.3 0-37.7-30.5-68.3-68.2-68.3z"  horiz-adv-x="1024" />

    
    <glyph glyph-name="left" unicode="&#58979;" d="M0 896v-1024h1024V896H0z m981.333-981.333H42.667V853.333h938.667v-938.666zM298.667 640h426.667v-213.333H298.667zM128 768h85.333v-768H128zM298.667 341.333H896V128H298.667z"  horiz-adv-x="1024" />

    
    <glyph glyph-name="hyjm" unicode="&#58980;" d="M808.072-51.187h87.748c28.831 0 52.383 23.423 52.383 52.351V766.836c0 28.799-23.455 52.351-52.383 52.351H130.148c-28.799 0-52.318-23.423-52.318-52.351v-765.672c0-28.799 23.423-52.351 52.318-52.351h87.773l105.946 113.37 43.199 46.175 75.187-75.316 77.96 77.94 62.846 62.846 225.013-225.015zM474.588 401.718H336.897v-161.595c0-21.247-17.151-38.399-38.399-38.399-21.247 0-38.399 17.151-38.399 38.399V640.238c0 21.248 17.151 38.367 38.399 38.367 21.247 0 38.399-17.119 38.399-38.367v-161.723h137.692V640.238c0 21.248 17.151 38.367 38.399 38.367 21.279 0 38.399-17.119 38.399-38.367v-199.619a42.045 42.045 0 0 0 0-1.003v-199.494c0-21.247-17.12-38.399-38.399-38.399-21.247 0-38.399 17.151-38.399 38.399V401.718z m252.924 161.371c-21.279 0-38.399 17.151-38.399 38.399v38.751c0 21.248 17.119 38.367 38.399 38.367 21.247 0 38.399-17.119 38.399-38.367v-38.751c0-21.248-17.152-38.399-38.399-38.399z m0-361.365c-21.279 0-38.399 17.151-38.399 38.399V472.34c0 21.247 17.119 38.399 38.399 38.399 21.247 0 38.399-17.151 38.399-38.399v-232.217c0-21.248-17.152-38.399-38.399-38.399zM895.82 895.984C967.146 895.984 1025 838.162 1025 766.836v-765.672c0-71.326-57.854-129.148-129.18-129.148H130.148C58.854-127.984 1-70.162 1 1.164V766.836C1 838.162 58.854 895.984 130.148 895.984H895.82z"  horiz-adv-x="1025" />

    
    <glyph glyph-name="microphone" unicode="&#58981;" d="M875 435.6c-7.2 7.6-17.1 11.9-27.2 11.9-20.6 0-37.3-17.2-37.3-38.3 0-84.2-31.6-163.3-89-222.7-57.5-59.5-133.9-92.3-214.9-92.3s-157.4 32.8-215 92.4c-57.4 59.4-89 138.5-89 222.7 0 21.1-16.7 38.3-37.3 38.3-20.6 0-37.3-17.2-37.3-38.3 0-52.4 9.9-103.7 29.5-152.4 18.9-46.6 46.2-88.5 81.3-124.4 29.6-30.9 73.1-59.1 129.2-84l9.8-4.3c29.2-12.8 48.5-21.2 91.3-24.5l2.4-0.2v-122.6H555V20l2.3 0.3c33.3 4.4 68.5 14.3 101.9 28.7 43.2 19.2 81.7 46.6 117.5 83.9 33.6 35 60.4 76.9 79.6 124.4 19.5 47.2 29 97 29 152.4 0.1 9.6-3.5 18.8-10.3 25.9zM512.7 195.7c123.1 0 223.2 103.7 223.2 231.2V664.8C735.9 792.3 635.8 896 512.7 896S289.5 792.3 289.5 664.8v-238.5c0-127.1 100.1-230.6 223.2-230.6zM356.9 657.8h1.1v1.3c0 37.7 18.3 78.5 50.1 111.7 30.4 31.2 64.2 46.3 103.4 46.3 41.4 0 81.4-16.9 109.5-46.3 30.2-30.9 46.8-70.6 46.8-111.7V428c0-39.1-17.9-79.8-49-111.7C590.1 286.9 550 270 508.7 270c-40.3 0-74.4 14.8-104 45.2-30.4 31.2-47.9 72.4-47.9 112.9V657.8z"  horiz-adv-x="1024" />

    
    <glyph glyph-name="narrow" unicode="&#58982;" d="M1009.314261-32.682288c-49.699052 51.799012-101.498064 101.598062-151.897103 152.797086 58.998875 75.298564 95.298182 168.496786 101.098072 263.994965 9.699815 133.797448-40.199233 270.694837-134.597433 366.293014C744.719307 832.901203 634.721405 885.200206 520.623581 894.000038 386.126146 906.699796 247.428792 858.000725 149.930651 764.602506 67.732219 687.30398 14.233239 580.006027 2.933455 467.60817-12.066259 336.210676 31.032919 199.313287 119.03124 100.315176c80.19847-92.198242 196.896245-152.097099 318.993917-161.596918 120.197708-12.099769 243.495356 25.899506 338.193549 100.198089 49.499056-48.899067 98.098129-98.59812 147.697183-147.297191 15.599702-16.699681 40.89922-25.099521 62.498808-15.699701 36.6993 11.799775 50.799031 63.798783 22.899564 91.398257z m-409.192196 83.8984c-71.698633-23.499552-150.097137-25.599512-222.795751-5.299899C250.028742 79.715568 144.630752 184.813564 110.431404 312.011138c-29.299441 102.098053-13.299746 216.195877 42.99918 306.294158 55.698938 90.398276 150.197135 156.097023 254.895139 174.996663 103.29803 19.89962 214.795903-4.799908 299.194294-67.998703 124.697622-89.398295 184.496481-257.595087 143.997253-405.692263-30.999409-124.497626-129.49753-229.295627-251.395205-268.394881zM629.22151 480.007934H330.827201c-23.699548 0-42.799184-21.49959-42.799184-47.999085s19.199634-47.999085 42.799184-47.999084h298.394309c23.59955 0 42.799184 21.49959 42.799184 47.999084s-19.199634 47.999085-42.799184 47.999085z"  horiz-adv-x="1024" />

    
    <glyph glyph-name="microphone1" unicode="&#58983;" d="M546 89.6v-143.9h117.5c18.7 0 34-16.6 34-36.8s-15.3-36.8-34-36.8h-303c-18.7 0-34 16.6-34 36.8s15.3 36.8 34 36.8H478V90.5C321.3 107.8 182.9 248 182.9 420.3c0 19.7 15.9 36.9 34 36.9 18.2 0 34-17.2 34-36.9 0-137.8 122.6-258.4 261.1-258.4s261.1 120.6 261.1 258.4c0 19.7 15.9 36.9 34 36.9s34-17.2 34-36.9c0-172.3-138.4-312.5-295.1-329.7v-1z m-34 111.5c-120.2 0-219.4 102.3-219.4 226.1V669.9C292.6 796.1 391.9 896 512 896s219.4-102.3 219.4-226.1v-242.7c0-123.7-99.3-226.1-219.4-226.1z"  horiz-adv-x="1024" />

    
    <glyph glyph-name="jshy" unicode="&#58984;" d="M452.818 553.872c-20.8 0-37.664-16.864-37.664-37.664v-121.76c0-20.8 16.864-37.664 37.664-37.664h121.76c20.833 0 37.664 16.864 37.664 37.664v121.76c0 20.8-16.831 37.664-37.664 37.664h-121.76zM646.984 590.041c24.512-24.512 42.592-56.352 50.753-92.064h61.696c-8.255 52.512-33.152 99.327-69.632 134.88-36.352 36.352-83.136 60.511-134.88 69.12v-61.12c35.072-7.936 66.656-25.409 91.008-49.792l1.055-1.024zM646.99 322.06c-33.792-33.76-81.247-55.936-133.984-55.936-52.768 0-100.224 21.121-134.016 55.936-33.728 33.759-55.904 81.249-55.904 133.984 0 52.736 21.12 100.224 55.904 133.985 34.848 33.76 82.304 55.935 134.016 55.935v59.969c-68.352 0-132.033-28.288-176.832-73.088-44.769-44.8-73.088-107.264-73.088-176.8 0-68.383 28.319-132 73.088-176.799 44.799-45.985 108.48-73.088 176.832-73.088 69.535 0 132 28.288 176.8 73.088 45.984 44.799 73.088 107.264 73.088 176.799h-60c0.001-52.736-21.087-100.225-55.904-133.985zM895.848 895.997H130.152C58.825 895.997 1 838.173 1 766.844v-621.599c0-71.329 57.825-129.152 129.152-129.152h42.435v-105.69c0-21.12 17.312-38.399 38.432-38.399 21.088 0 38.368 17.28 38.368 38.399v105.69h527.185v-105.69c0-21.12 17.28-38.399 38.432-38.399 21.12 0 38.399 17.28 38.399 38.399v105.69h42.444c71.329 0 129.152 57.823 129.152 129.152V766.844C1025 838.173 967.177 895.997 895.848 895.997zM948.2 145.245c0-28.928-23.552-52.353-52.352-52.353H130.152c-28.961 0-52.352 23.553-52.352 52.353V766.844c0 28.928 23.52 52.352 52.352 52.352h765.696c28.928 0 52.352-23.552 52.352-52.352v-621.599z"  horiz-adv-x="1024" />

    
    <glyph glyph-name="participants" unicode="&#58985;" d="M776.1 262.2c17.2-3.2 32.3 6.1 32.3 29.7 0 13.7-12.1 25.2-22.3 33l-1.9 1.9c-33.5 25.4-68.4 49.7-108.7 64.8 51.1 43.1 83.6 107.1 83.6 178.3 0 129.7-107.1 235-239.2 235-132 0-239-105.3-239-235 0-71.4 32.5-135.3 83.6-178.3C200.7 352.6 85.4 175 85.3-7.2c0.1-23.6 10.6-41.2 34.4-41.2 24 0 29.5 17 30.8 40.5 11.2 198.8 118.7 363 369.5 362.5 78.7-0.2 170.8-31 227-77 15.3-12.5 29.1-15.4 29.1-15.4zM520.1 390c-120.9 0.2-179 88.2-179 171.8s66.4 181.4 179.2 181.4c131.1 0 179.3-98.8 179.3-182.3 0-83.7-76.4-174-179.5-170.9zM597.3 136.5c0-18.8 16.6-34.1 36.8-34.1h267.7c20.2 0 36.8 15.4 36.8 34.1 0 18.8-16.6 34.1-36.8 34.1H634.1c-20.2 0.1-36.8-15.3-36.8-34.1zM901.9 42.7H634.1c-20.2 0-36.8-15.4-36.8-34.1 0-18.8 16.6-34.1 36.8-34.1h267.7c20.2 0 36.8 15.4 36.8 34.1 0.1 18.7-16.5 34.1-36.7 34.1z"  horiz-adv-x="1024" />

    
    <glyph glyph-name="hyxx" unicode="&#58986;" d="M513.009 601.846c63.587 0 116.523-44.87 128.213-106.251h66.801c-8.886 69.542-53.157 128.812-117.09 156.414 44.492 31.919 65.635 88.384 51.865 142.676C627.642 854.302 574.296 895.957 513.009 895.957c-61.223 0-114.601-41.656-129.725-101.272-13.801-54.291 7.342-110.757 51.833-142.644-63.965-27.603-108.267-86.872-117.184-156.446h66.832c11.754 61.382 64.627 106.251 128.244 106.251z m0 227.657c37.371 0 67.746-30.501 67.746-68.029s-30.375-68.061-67.746-68.061c-37.37 0-67.746 30.533-67.746 68.061s30.376 68.029 67.746 68.029zM317.933-61.485h66.832c11.753 61.412 64.626 106.251 128.244 106.251 63.587 0 116.523-44.838 128.213-106.251h66.801c-8.886 69.542-53.157 128.812-117.09 156.446 44.492 31.888 65.635 88.353 51.865 142.644-15.156 59.616-68.502 101.272-129.788 101.272-61.223 0-114.601-41.656-129.725-101.272-13.801-54.291 7.342-110.725 51.833-142.644-63.965-27.603-108.267-86.873-117.185-156.446z m195.076 333.908c37.371 0 67.746-30.501 67.746-68.029s-30.375-68.06-67.746-68.06c-37.37 0-67.746 30.533-67.746 68.06s30.376 68.029 67.746 68.029zM91.502-19.363a33.243 33.085 90 1 1 66.17 0 33.243 33.085 90 1 1-66.17 0ZM714.914 495.586H303.272v-0.094C135.83 491.143 1 353.005 1 183.799c-0.063-46.004 10.335-92.355 30.029-133.916 3.813-8.035 10.461-14.085 18.812-17.047 8.318-2.962 17.299-2.489 25.271 1.292 8.003 3.844 14.022 10.556 16.983 18.937 2.962 8.35 2.489 17.362-1.323 25.397-15.503 32.676-23.664 69.101-23.601 105.337 0 135.27 109.528 245.302 244.168 245.302H714.631c134.546 0 243.979-109.811 244.2-244.893v-0.41c0-135.239-109.528-245.302-244.2-245.302H310.614c-30.092 0.062-59.585 5.64-87.66 16.574-8.224 3.182-17.236 2.962-25.334-0.567-8.098-3.592-14.305-10.115-17.488-18.401-3.182-8.287-2.994-17.299 0.567-25.429 3.56-8.129 10.083-14.399 18.307-17.582 33.369-13.014 68.439-20.04 104.391-20.954l13.738-0.094H714.725c171.066 0 310.275 139.871 310.275 311.756v0.63c-0.347 171.633-139.304 311.157-310.086 311.157z"  horiz-adv-x="1025" />

    
    <glyph glyph-name="close" unicode="&#58987;" d="M512 458.5l335.1 335.1 74.5-74.5L586.5 384l335.1-335.1-74.5-74.5L512 309.5 176.9-25.6l-74.5 74.5L437.5 384 102.4 719.1l74.5 74.5L512 458.5z"  horiz-adv-x="1024" />

    
    <glyph glyph-name="password" unicode="&#58988;" d="M708.780783 506.038082H315.219217V623.626599c0 106.689581 88.291378 193.481105 196.780783 193.481105 108.489405 0 196.780783-86.791524 196.780783-193.481105V506.038082zM512 102.577483c-48.595254 0-87.891417 38.696221-87.891417 86.391563 0 47.795332 39.296162 86.491554 87.891417 86.491554s87.891417-38.696221 87.891417-86.491554c0-47.695342-39.396153-86.391563-87.891417-86.391563zM818.270091 506.038082H788.972952V623.626599C788.972952 773.811932 664.685089 896 512 896 359.21492 896 235.027048 773.811932 235.027048 623.626599V506.038082h-29.297139c-66.393516 0-120.388243-53.094815-120.388243-118.388438v-397.261205c0-65.293624 53.994727-118.388439 120.388243-118.388439h612.540182c66.393516 0 120.388243 53.094815 120.388243 118.388439V387.649644c0 65.293624-53.994727 118.388439-120.388243 118.388438z"  horiz-adv-x="1024" />

    
    <glyph glyph-name="news" unicode="&#58989;" d="M896.988 777.846H129.012C58.204 777.846 1 717.832 1 643.716v-519.433c0-74.115 57.204-134.13 128.012-134.13h767.976c70.534 0 128.012 60.014 128.012 134.13V643.716c0 74.116-57.478 134.13-128.012 134.13z m59.736-653.562c0-34.464-26.793-62.524-59.736-62.524H129.012c-32.942 0-59.736 28.06-59.736 62.524V643.716c0 34.418 26.793 62.524 59.736 62.524h767.976c32.942 0 59.736-28.106 59.736-62.524v-519.432zM854.353 575.243l-341.3-231.14-341.414 231.14c-15.82 10.625-36.846 5.875-47.099-10.7-10.115-16.62-5.591-38.757 10.252-49.457l359.849-243.579c5.57-3.822 12.048-5.661 18.411-5.661 6.387 0 12.844 1.839 18.435 5.661L891.2 515.087c15.822 10.7 20.435 32.837 10.185 49.457-10.185 16.644-31.416 21.324-47.032 10.699z"  horiz-adv-x="1025" />

    
    <glyph glyph-name="grouping" unicode="&#58990;" d="M142.9 487.2c0 5.6 4.3 10.1 9.6 10.1h481.4c5.1 0 9.6-4.8 9.6-10.1V41c0-5.5-4.3-10.1-9.6-10.1H152.7c-5.1 0-8 3.6-9 6.8l-0.8 2.4V487.2z m491 69.5H152.5c-37.1 0-67.2-31.2-67.2-69.5V41c0-38.3 30.1-69.5 67.2-69.5h481.4c37 0 67.1 31.2 67.1 69.5V487.2c0 38.3-30.1 69.5-67.1 69.5zM731 668.9H300.7c-15.8 0-28.5-13.1-28.5-29.4S285 610 300.7 610h431.1c5.1 0 9.6-4.7 9.6-10.1v-446.2c0-17.1 12.3-30 28.2-30 15.8 0 28.4 13.1 28.4 29.4V599.3c0.1 38.4-30 69.6-67 69.6M843.1 781H412.9c-15.8 0-28.4-12.9-28.4-29.2s12.7-29.4 28.4-29.4h430.9c5.1 0 9.6-4.8 9.6-10.1v-445.8c-0.4-8 2.2-15.3 7.6-21.1 5.5-6 13.1-9.3 20.9-9.5 15.8 0 28.4 13.1 28.4 29.4V711.5c0 38.3-30.1 69.5-67.2 69.5"  horiz-adv-x="1024" />

    
    <glyph glyph-name="ranking" unicode="&#58991;" d="M471 554.7h82c48 0 87 39 87 87v82c0 48-39 87-87 87h-82c-48 0-87-39-87-87v-82c0-48 39-87 87-87z m-35.8 169c0 19.8 16.1 35.8 35.8 35.8h82c19.8 0 35.8-16.1 35.8-35.8v-82c0-19.8-16.1-35.8-35.8-35.8h-82c-19.8 0-35.8 16.1-35.8 35.8v82zM553 213.3h-82c-48 0-87-39-87-87v-82c0-48 39-87 87-87h82c48 0 87 39 87 87v82c0 48-39 87-87 87z m35.8-169c0-19.8-16.1-35.8-35.8-35.8h-82c-19.8 0-35.9 16.1-35.9 35.8v82c0 19.8 16.1 35.8 35.9 35.8h82c19.8 0 35.8-16.1 35.8-35.8v-82zM211.7 213.3h-82c-48 0-87-39-87-87v-82c0-48 39-87 87-87h82c48 0 87 39 87 87v82c0 48-39.1 87-87 87z m35.8-169c0-19.8-16.1-35.8-35.8-35.8h-82c-19.8 0-35.9 16.1-35.9 35.8v82c0 19.8 16.1 35.8 35.9 35.8h82c19.8 0 35.8-16.1 35.8-35.8v-82zM894.3 213.3h-82c-48 0-87-39-87-87v-82c0-48 39-87 87-87h82c48 0 87 39 87 87v82c0 48-39 87-87 87z m35.9-169c0-19.8-16.1-35.8-35.8-35.8h-82c-19.8 0-35.9 16.1-35.9 35.8v82c0 19.8 16.1 35.8 35.9 35.8h82c19.8 0 35.8-16.1 35.8-35.8v-82zM177.8 356.4c0 17.7 15.8 32.1 35.2 32.1h273.8v-89.8h49.8v89.8H811c19.4 0 35.2-14.4 35.2-32.1v-57.7H896v57.7c0 42.7-38.1 77.5-85 77.5H536.6V512h-49.8v-78.1H213c-46.9 0-85-34.8-85-77.5v-57.7h49.8v57.7z"  horiz-adv-x="1024" />

    
    <glyph glyph-name="nameplate" unicode="&#58992;" d="M247.5 529.1h230.4c18.9 0 34.1 15.3 34.1 34.1s-15.3 34.1-34.1 34.1H247.5c-18.9 0-34.1-15.3-34.1-34.1-0.1-18.9 15.2-34.1 34.1-34.1zM392.5 256h-145c-18.9 0-34.1-15.3-34.1-34.1 0-18.9 15.3-34.1 34.1-34.1h145.1c18.9 0 34.1 15.3 34.1 34.1S411.4 256 392.5 256zM648.5 469.3h-401c-18.9 0-34.1-15.3-34.1-34.1 0-18.9 15.3-34.1 34.1-34.1h401.1c18.9 0 34.1 15.3 34.1 34.1s-15.3 34.1-34.2 34.1zM852.9 762.5H166.2c-68.1 0-123.5-56.7-123.5-126.3v-509.8c0-69.7 55.4-126.3 123.5-126.3h686.7c68.1 0 123.5 56.7 123.5 126.3V636.1c0 69.7-55.4 126.4-123.5 126.4z m63.9-617.3c0-47.2-37.5-85.5-83.6-85.5H183.6c-46.1 0-83.6 38.4-83.6 85.5v475c0 47.2 37.5 85.5 83.6 85.5h649.6c46.1 0 83.6-38.4 83.6-85.5v-475z"  horiz-adv-x="1024" />

    
    <glyph glyph-name="open" unicode="&#58993;" d="M130.7 658.3h762.6c25.1 0 45.4 24.5 45.4 54.9S918.4 768 893.3 768H130.7c-25.1 0-45.4-24.5-45.4-54.9 0-30.3 20.3-54.8 45.4-54.8zM93.2 239.9c4.8-2.4 10.6-1.9 14.9 1.4l151.7 115.2c3.6 2.7 5.7 7 5.7 11.5s-2.1 8.8-5.7 11.5L108.1 494.7c-4.3 3.3-10.1 3.8-14.9 1.4-4.8-2.4-7.9-7.4-7.9-12.9v-230.4c0-5.4 3.1-10.4 7.9-12.9zM893.3 334.2H415.2c-25.1 0-45.4-24.5-45.4-54.9s20.3-54.9 45.4-54.9h478.1c25.1 0 45.4 24.5 45.4 54.9s-20.3 54.9-45.4 54.9zM893.3 109.7H130.7c-25.1 0-45.4-24.5-45.4-54.9 0-30.3 20.3-54.9 45.4-54.9h762.6c25.1 0 45.4 24.5 45.4 54.9s-20.3 54.9-45.4 54.9zM893.3 552.5H415.2c-25.1 0-45.4-24.5-45.4-54.9 0-30.3 20.3-54.9 45.4-54.9h478.1c25.1 0 45.4 24.5 45.4 54.9 0 30.3-20.3 54.9-45.4 54.9z"  horiz-adv-x="1024" />

    
    <glyph glyph-name="refresh" unicode="&#58994;" d="M704 632.6l-55.8-67.2L938.7 539 851.8 810.7l-69-83.2C707.5 781.7 616.5 810.8 523 810.7 281.3 810.7 85.3 619.6 85.3 384c0-235.7 196-426.7 437.7-426.7 181.3-0.2 343.9 109 409 274.4 5.9 15.1 5.4 31.9-1.4 46.7-6.7 14.7-19.2 26.2-34.7 32-32.2 12-68.3-3.7-80.7-35.1-46.5-118.2-162.7-196.2-292.1-196.1-172.7 0-312.7 136.5-312.7 304.8s140 304.7 312.7 304.7c66 0 128.8-20 180.9-56.1"  horiz-adv-x="1024" />

    
    <glyph glyph-name="restart" unicode="&#58995;" d="M986.632-51.2h-947.2C18.28-51.2 1-68.48 1-89.601 1-110.72 18.28-128 39.432-128h947.2c21.12 0 38.368 17.28 38.368 38.399 0 21.121-17.249 38.401-38.368 38.401zM713.91 445.596c-13.216 0-24.014-10.346-24.98-23.454l-0.326 0.082C674.75 325 585.713 257.257 489.345 270.935c-96.527 13.678-163.808 103.905-150.273 201.451 13.614 97.548 102.891 165.539 199.425 151.774 27.069-3.822 51.895-13.758 73.239-28.09l-31.096-49.18c-1.531-2.361 0.558-5.375 3.302-4.803l116.84 25.814a3.205 3.205 0 0 1 2.41 3.742L677.493 690.2c-0.567 2.772-4.194 3.418-5.645 1.057l-33.035-52.269c-27.235 18.158-58.819 30.693-93.304 35.583-124.09 17.582-238.746-69.707-256.155-195.106-17.404-125.394 68.978-241.266 193.061-258.853 123.849-17.587 238.42 69.458 256.075 194.529 0.239 1.628 0.399 3.417 0.399 5.213 0 13.919-11.199 25.242-24.979 25.242zM895.848 896H130.152C58.823 896 1 838.177 1 766.848v-621.599c0-71.329 57.823-129.152 129.152-129.152h765.696c71.329 0 129.152 57.823 129.152 129.152V766.848C1025 838.177 967.177 896 895.848 896zM948.2 145.249c0-28.928-23.552-52.353-52.352-52.353H130.152c-28.897 0-52.321 23.553-52.321 52.353V766.848c0 28.928 23.52 52.352 52.321 52.352h765.696c28.928 0 52.352-23.552 52.352-52.352v-621.599z"  horiz-adv-x="1025" />

    
    <glyph glyph-name="reset" unicode="&#58996;" d="M210.3 384c0 168.3 140 304.7 312.7 304.7 66.1 0 128.8-20 180.9-56.1l-55.8-67.2 290.5-26.3-86.8 271.6-69-83.2C707.5 781.7 616.5 810.8 523 810.7 281.3 810.7 85.3 619.6 85.3 384c0-88.1 125-88.1 125 0zM830.7 369.1c0-168.3-140-304.7-312.7-304.7-66.1 0-128.8 20-180.9 56.1l55.8 67.2L102.4 214l86.8-271.6 69 83.2c75.3-54.2 166.3-83.3 259.8-83.2 241.7 0 437.7 191.1 437.7 426.7 0 88.1-125 88.1-125 0zM512 384m-102.4 0a102.4 102.4 0 1 1 204.8 0 102.4 102.4 0 1 1-204.8 0Z"  horiz-adv-x="1024" />

    
    <glyph glyph-name="rise" unicode="&#58997;" d="M856 543l-1.1 1.1L556.7 831.4A50.883 50.883 0 0 1 512 844.9c-15.7 2.9-32.4-1.6-44.7-13.5L169.1 544.1 168 543c-19.4-19.9-19-51.7 0.9-71.1l1.6-1.6c19.8-19.3 51.4-19.4 71.3-0.2l219.1 211v-706.8c0-28.3 22.9-51.2 51.2-51.2s51.2 22.9 51.2 51.2V681.2l219.1-211c19.9-19.2 51.5-19.1 71.3 0.2l1.6 1.6c19.7 19.3 20.1 51.2 0.7 71z"  horiz-adv-x="1024" />

    
    <glyph glyph-name="personnel" unicode="&#58998;" d="M621.7 410.8l-7 2.8 6 4.7c47.8 37.5 75.2 93.6 75.2 153.9 0 108-87.8 195.8-195.8 195.8-107.9 0-195.8-87.8-195.8-195.8 0-60.3 27.4-116.4 75.2-153.9l5.9-4.7-7-2.8c-126.1-50.4-207.6-170.4-207.6-305.7v-66.7c0-16 13-29 29-29h600.6c16 0 29 13 29 29v66.7c-0.2 135.3-81.6 255.3-207.7 305.7zM362.1 572.2c0 76 61.8 137.8 137.8 137.8 76 0 137.8-61.8 137.8-137.8 0-76-61.8-137.8-137.8-137.8-75.9 0-137.8 61.8-137.8 137.8z m409.1-504.9H228.7V105c0 149.6 121.7 271.3 271.3 271.3 149.6 0 271.2-121.7 271.2-271.3v-37.7zM278 390.1c0.4 0.8 0.5 1.8 0.7 3 0.1 0.9 0.2 1.7 0.4 2.5l0.3 1.1c0.2 0.8 0.4 1.5 0.5 2.3 0.2 1.8 0.1 3.9-0.3 6.5-0.1 1-0.1 1.7 0 2.5v1.1c-0.3 0.4-0.7 1-0.9 1.9-0.3 1-0.9 2.1-1.5 3.2-1.3 2.7-2.6 5.1-4.4 7.1l-0.9 0.8c-2.6 2.7-5.5 4.8-9 6.3-37.7 16.8-62.1 54.3-62.1 95.4 0 48.5 32.9 90.3 79.9 101.6 15.5 3.8 25.1 19.5 21.4 35-3.2 13.2-15.2 22.2-28.3 22.2-2.2 0-4.4-0.3-6.7-0.8-73.2-17.6-124.3-82.6-124.3-158 0-40.3 15-79 42.2-109l3.8-4.2-5-2.6C96.7 363 42.7 273.8 42.7 175.2v-51.6c0-16 13-29 28.9-29 16 0 29 13 29 29v51.6c0 93.8 63.5 175.2 154.4 198.1 10.7 1.5 19.1 7.8 23 16.8zM841.1 408.9l-5 2.6 3.8 4.2c27.2 30.1 42.2 68.8 42.2 109 0 73.4-49.4 137.9-120.2 156.9-2.5 0.7-5 1-7.5 1-12.8 0-24.5-8.5-28-21.4-2-7.5-1-15.3 2.9-22 3.9-6.7 10.1-11.5 17.6-13.5 45.5-12.2 77.3-53.7 77.3-100.9 0-41.1-24.3-78.5-62-95.4-3.6-1.6-6.6-3.7-9.3-6.4l-0.8-0.8c-1.8-2-3.1-4.4-4.2-6.8l-0.5-1.1c-0.4-0.8-0.9-1.6-1.1-2.5-0.2-0.8-0.6-1.4-0.9-1.9-0.1-0.2-0.1-0.7-0.1-1.1v-2.4c-0.4-2.9-0.5-4.8-0.3-6.8 0.1-0.8 0.3-1.5 0.5-2.3 0.4-1.8 0.6-2.7 0.7-3.5 0.2-1.2 0.3-2.2 0.7-2.9 4-9.1 12.4-15.3 22.6-16.8 91.4-23 154.8-104.4 154.8-198.2v-51.6c0-16 13-29 29-29s29 13 29 29V176c-0.1 98.6-54.2 187.8-141.2 232.9z"  horiz-adv-x="1024" />

    
    <glyph glyph-name="return" unicode="&#58999;" d="M380.738 379.903l370.645 416.031c20.439 22.896 20.439 60.023 0 82.905-20.36 22.882-53.438 22.882-73.85 0L271.28 422.869c-20.373-22.866-20.373-59.993 0-82.904 1.604-1.801 3.443-3.221 5.204-4.743 0.313-0.366 0.535-0.791 0.835-1.171l403.618-445.296c19.917-22.34 52.211-22.34 72.115 0 19.93 22.37 19.93 58.603 0 80.943L380.738 379.903z"  horiz-adv-x="1024" />

    
    <glyph glyph-name="right" unicode="&#59000;" d="M0 896v-1024h1024V896H0z m981.333-981.333H42.667V853.333h938.667v-938.666zM298.667 640h426.667v-213.333H298.667zM810.667 768H896v-768h-85.333zM128 341.333h597.333V128H128z"  horiz-adv-x="1024" />

    
    <glyph glyph-name="set" unicode="&#59001;" d="M614.4 384c0 56.5-45.9 102.4-102.4 102.4-56.5 0-102.4-45.9-102.4-102.4S455.5 281.6 512 281.6c56.5 0 102.4 45.9 102.4 102.4zM512 563.2c98.8 0 179.2-80.4 179.2-179.2S610.8 204.8 512 204.8c-98.8 0-179.2 80.4-179.2 179.2S413.2 563.2 512 563.2z m377.8-179.3c0 23.9-4.1 56.3-8 78.7-1.5 7.9-3.7 9.7-4.1 9.7-79.2 0-143.8 67.8-143.8 151 0 25.9 9.5 51.3 12.4 58.4 2.1 5 0.1 12.2-4.3 16.3l-99.9 58.3c-0.3 0.1-1.7 0.6-4.3 0.6-5.5 0-11.1-2.5-13.4-4.9-0.4-0.4-55.6-60.9-110.5-60.9-53 0-105.6 55.7-111.4 62.1-2.9 3.1-12.6 6.1-17.4 4.4l-104.2-60.1c-3.6-2.9-6-10.5-3.4-16.6 1.3-3 12.2-29.8 12.2-57.6 0-84-63.3-149.9-144.5-151.1-1.1-1.8-2.5-5-3.4-10.1-3.8-22.2-7.9-54.6-7.9-78.2 0-31.7 7.1-73.9 7.9-78.6 1-5.1 2.5-8.2 3.4-9.8h0.7c79.3 0 143.8-67.8 143.8-151 0-24.6-8.7-49-12.4-58.4-2.1-4.9-0.3-12.1 3.7-15.9l98.2-57.8c1-0.5 2.6-0.7 4.3-0.7 5.5 0 10.9 2.4 12.9 4.8 10.2 11.2 61.7 64.7 113.2 64.7 53.5 0 104.3-55 113.9-66 3.6-4.2 11.9-6 16.4-4.5l102.7 59.7c3.3 2.5 5.8 10.3 3.1 16.5-3.7 9.4-12.1 33.4-12.1 57.5 0 84.7 64.1 151 145.8 151-1.1 0.1 1.1 4.2 2.1 10.1 4.3 21.1 8.6 54.2 8.3 78.4z m73.8 94.4c6.1-37 9.4-69.8 9.2-94.8 0-38.6-7.8-84.9-9.4-93.8-8.7-48.1-41.9-80.8-82.6-81.3-35.9 0-63.9-28.1-63.9-64 0-6.6 3.2-17.9 5.6-23.9 17.9-42.5 3.9-95-32.7-121.8l-4.5-3.2L675-68.3c-12.6-5.8-25.4-8.5-39-8.5-28.4 0-55.4 12.3-73.9 33.7-16.7 19.2-43.6 37.4-52.4 37.4-8.4 0-36.2-18.4-52.1-36.6-26.5-30.6-76.7-41.4-112.1-24.7l-4.5 2.3-105.8 62.6c-37.4 27.6-51.5 80.4-33.4 123.2 2.2 5.3 5.4 16.7 5.4 23.3 0 35.3-27.3 64-60.8 64H142c-39.9 0-72.6 32.4-81.3 80.6-2.9 16.6-9.5 58.8-9.5 94.7 0 38.8 7.8 85 9.4 93.8 8.5 48.6 41.2 81.3 81.2 81.3 37.4 0 65.3 28.2 65.3 64.1 0 7.2-3.6 19-5.6 23.7-18 42.8-4 95.4 32.7 122.2l4.7 3.2L351 836.5c38.5 17.6 85.2 6.2 112-23.6 16.3-18 42.7-35 51.2-35s34.3 16.2 51.1 34.4c17.9 19.6 45.2 31.2 72.9 31.2 13.5 0 26.7-2.8 38.1-8l4.6-2.3 107.4-63c37.9-27.9 52.3-80.8 34.2-123.7-1.8-4.5-5.3-16.3-5.3-23.3 0-35.4 27.3-64.1 60.8-64.1 43.8 0 76.8-31.7 85.6-80.6v-0.2z"  horiz-adv-x="1024" />

    
    <glyph glyph-name="service" unicode="&#59002;" d="M802.1 757H148.5c-27.3 0-49.5-22.7-49.5-50.8l0.3-286.9c-0.1-2.4-0.3-4.8-0.3-7.2 0-156 168.5-282.4 376.2-282.4 207.8 0 376.2 126.4 376.2 282.4 0 2.4-0.2 4.8-0.2 7.2l0.2 286.9c0.1 28.1-22 50.8-49.3 50.8m-16.2-67.4l-0.2-270.2v-2.4l0.1-3.2 0.1-1.7c0-116.6-142.2-215-310.6-215-168.4 0-310.7 98.5-310.7 214.9l0.1 1.9 0.1 3.2v2.4l-0.2 270.2 621.3-0.1M820.5 17.1H131.9c-18.1 0-32.9 15.4-32.9 34.1s14.8 34.1 32.9 34.1h688.6c18.1 0 32.9-15.4 32.9-34.1s-14.9-34.1-32.9-34.1M924.9 426.7c-16 0-28.9 13-28.9 29s12.9 29 28.9 29h0.7c22.4 0 40.5 18.2 40.5 40.6V626.7c0 22.4-18.1 40.6-40.5 40.6h-0.7c-16 0-28.9 13-28.9 29s12.9 29 28.9 29h0.7c54.3 0 98.3-44.1 98.3-98.6v-101.5c0-54.4-44-98.6-98.3-98.6l-0.7 0.1zM348 257.8c-73.5 27.5-111.9 65.6-130.4 90.4-9.1 12.3-2.9 28.9 12.6 33.9l1.3 0.5c10.9 3.6 23.3 0.2 29.8-8.5 13.6-18.3 44.2-49.5 106.8-72.9 12.5-4.7 19-17 14.6-28.4l-0.6-1.5c-4.8-12.5-20.5-18.6-34.1-13.5"  horiz-adv-x="1024" />

    
    <glyph glyph-name="search" unicode="&#59003;" d="M437.744977 896.001C196.400902 896.001 0 700.771972 0 460.822748c0-239.89923 196.400902-435.128258 437.744977-435.128258 241.391069 0 437.744977 195.229028 437.744976 435.128258C875.490953 700.771972 679.136046 896.001 437.744977 896.001zM662.149871 240.73039c-59.725584-60.340518-139.373028-93.576948-224.404894-93.576947-172.317489 0-312.520428 139.366029-312.520429 310.653629 0 171.237605 140.202939 310.604634 312.520429 310.604634 169.4288 0 312.520428-142.237721 312.520428-310.944598 1.370853-80.923307-29.907787-157.905038-88.115534-216.736718zM1005.826952-14.14823L863.480243 127.35257c-13.852512 13.770521-32.495509 21.397701-50.933528 20.375811-17.304141-0.768917-33.010454-8.499087-44.081265-21.756663-11.123805-13.261575-17.561114-29.490832-18.127053-45.770083-0.669928-18.941965 6.695281-35.733161 19.36292-46.126045l142.343709-141.5008c13.185584-13.104592 30.539719-20.4788 48.151828-20.4788 0.9269 0 1.854801 0.052994 2.781701 0.052994 17.357135 0.818912 33.010454 8.549082 44.084264 21.806657 22.916538 27.237074 22.350599 68.448647-1.235867 91.896129z"  horiz-adv-x="1024" />

    
    <glyph glyph-name="meeting" unicode="&#59004;" d="M89.8 370.6c-2.9 11.6-4.5 23.8-4.5 36.2V509.6c0 84.2 70.4 152.7 156.9 152.7h76c3.9 82.5 71.2 148.4 153.4 148.4h80.7c82.2 0 149.6-65.9 153.4-148.4h76c86.5 0 156.9-68.5 156.9-152.7v-102.7c0-14.1-2-27.7-5.7-40.7 1.3-3.2 2.1-6.6 2.1-10.2v-328.5c0-38.6-33.5-70-74.6-70H159.9c-41.1 0-74.6 31.4-74.6 70V355.9c0 5.4 1.7 10.4 4.5 14.7z m54.8-83.2v-260.1c0-7.9 6.9-14.4 15.4-14.4h700.6c8.5 0 15.3 6.5 15.3 14.4V284.7c-26.2-19.2-58.8-30.6-94.1-30.6H242.3c-37 0-70.9 12.5-97.7 33.3z m502.8 374.9c-3.8 49.9-45 89.3-95.1 89.3h-80.7c-50.1 0-91.3-39.4-95.1-89.3h270.9zM512 493.3c-17.5 0-31.7-14.2-31.7-31.7s14.2-31.7 31.7-31.7 31.7 14.2 31.7 31.7-14.2 31.7-31.7 31.7z m0-109.3c-42.8 0-77.6 34.8-77.6 77.6s34.8 77.6 77.6 77.6 77.6-34.8 77.6-77.6S554.8 384 512 384zM242.3 604.4c-53.7 0-97.4-42.5-97.4-94.8v-102.7c0-52.3 43.7-94.8 97.4-94.8h539.5c53.7 0 97.4 42.5 97.4 94.8V509.6c0 52.3-43.7 94.8-97.4 94.8H242.3z"  horiz-adv-x="1024" />

    
    <glyph glyph-name="slogan" unicode="&#59005;" d="M528.8 554.7c-14.3 0-25.9-12.2-25.9-27.2v-91H393.1v91c0 15-11.6 27.2-25.9 27.2-14.3 0-25.9-12.2-25.9-27.2v-244.3c0-15 11.6-27.2 25.9-27.2 14.3 0 25.9 12.2 25.9 27.2V388H503v-104.8c0-15 11.6-27.2 25.9-27.2s25.9 12.2 25.9 27.2V527.5c-0.1 15-11.7 27.2-26 27.2zM661.3 469.3c-11.8 0-21.3-7.6-21.3-24v-165c0-16.5 9.6-24.3 21.3-24.3s21.3 7.9 21.3 24.3v165c0.1 16.5-9.5 24-21.3 24zM663.1 554.7h-3.5c-10.8 0-19.6-9.6-19.6-21.3 0-11.8 8.8-21.3 19.6-21.3h3.5c10.8 0 19.6 9.6 19.6 21.3 0 11.7-8.8 21.3-19.6 21.3zM821.9 766.1H197.6c-61.9 0-112.3-51.7-112.3-115.2v-464.8c0-63.5 50.4-115.2 112.3-115.2h334.2l88.1-99.2c8.2-9.2 19.8-14.4 31.9-14.4h0.6c12.3 0.2 24 5.8 32.1 15.4L767 71h54.9c61.9 0 112.3 51.7 112.3 115.2V650.9c0 63.5-50.4 115.2-112.3 115.2z m53.3-557c0-43-34.1-78-76-78h-64.7l-83-99.1-88.1 99.1H220.3c-41.9 0-76 35-76 78V628c0 43 34.1 77.9 76 77.9h578.9c41.9 0 76-35 76-77.9v-418.9z"  horiz-adv-x="1024" />

    
    <glyph glyph-name="sign_in_information" unicode="&#59006;" d="M716.5 587.4c-13.2 0-25.7 5.1-35.2 14.3-9.5 9.3-14.7 21.6-14.7 34.7V795.8c0 27 22.4 49 49.9 49h0.2c23.4 0 43.9-16.4 48.7-39.1 0.7-3.4 1.1-6.6 1.1-9.9v-159.4c0-13-5.4-25.6-14.6-34.7-9.2-9.1-22-14.3-35.1-14.3h-0.3z m-444.7 17.4c-7.8 9.2-11.9 20-11.9 31.5V795.7c0 27 22.4 49.1 50 49.1 4.3-0.1 8.4-0.7 12.4-1.7 8.4-2 16.5-6.4 22.7-12.6 2.4-2.2 4.5-4.8 6.3-7.5 5.4-7.8 8.4-17.3 8.4-27.2v-159.5c0-13.2-5.2-25.5-14.6-34.7-9.3-9.1-22.2-14.3-35.3-14.3-14.5-0.1-28.3 6.3-38 17.5z m750.2 35l2-589.1c0-69.1-58.2-127.4-127.1-127.4H126.8c-21.1 0-42 5.3-60.4 15.5C26-39.3 0 4.6 0 50.6V637.9c0 13.4 2.6 26.4 4.8 34.8 14.3 55.4 69.4 94.1 134.2 94.1h29.7c27.1 0 49.2-21.7 49.2-48.4 0-13-5.1-25.2-14.4-34.3-9.1-9-21.8-14.2-34.7-14.2H139c-18.1 0-39.2-8.3-39.2-31.9v-587.4c0-13.9 10.9-28.9 27.2-28.9h769.8c15 0 27.3 13 27.3 28.9v49c0.1 94.5-0.1 189-0.2 283.5-0.1 85.1-0.2 170.1-0.2 255.2-1 24.6-18.8 29.4-58 29.4h-4.3l-7.2-0.1c-27.2 0-49.3 21.8-49.3 48.6s22.1 48.6 49.3 48.6h29.7c20.5 0 44.7-1.9 70.6-15.6 41.7-22.1 65.7-60.8 67.6-109l-0.1-0.4z m-569.6 27.7c-17.5 0-33.7 9.2-42.5 24.1-8.9 15.1-8.9 33.8 0 48.9 8.8 14.8 25 24.1 42.6 24.1H571c27.1 0 49.2-21.8 49.2-48.6s-22-48.6-49.2-48.6H453l-0.6 0.1zM285.5 399.1c-21.5 0-39.1 17.4-39.1 38.5 0 21.2 17.6 38.5 39.1 38.5h49.1c21.5 0 39.1-17.4 39.1-38.5 0-21.2-17.6-38.5-39.1-38.5h-49.1z m0-134.6c-21.5 0-39.1 17.4-39.1 38.5s17.6 38.5 39.1 38.5h274.9c21.5 0 39.1-17.4 39.1-38.5s-17.6-38.5-39.1-38.5H285.5z m453.1-57.4c21.5 0 39.1-17.4 39.1-38.5 0-21.2-17.6-38.5-39.1-38.5H285.5c-21.5 0-39.1 17.4-39.1 38.5 0 21.2 17.6 38.5 39.1 38.5h453.1z"  horiz-adv-x="1024" />

    
    <glyph glyph-name="shrink" unicode="&#59007;" d="M130.701 0c-25.086 0-45.367 24.521-45.367 54.868 0 30.33 20.281 54.868 45.367 54.868H893.3c25.07 0 45.367-24.537 45.367-54.868 0-30.346-20.297-54.868-45.367-54.868H130.701zM91.022 379.533l151.707 115.202a14.057 14.057 0 0 0 14.881 1.351c4.821-2.441 7.859-7.42 7.859-12.871V252.81c0-5.451-3.037-10.43-7.859-12.871a14.055 14.055 0 0 0-14.881 1.351L91.022 356.493c-3.584 2.717-5.689 6.981-5.689 11.52s2.106 8.803 5.689 11.52z m324.128-155.1c-25.086 0-45.383 24.537-45.383 54.868s20.297 54.868 45.383 54.868h478.149c25.07 0 45.367-24.537 45.367-54.868s-20.297-54.868-45.367-54.868H415.15z m0 218.315c-25.086 0-45.383 24.537-45.383 54.868s20.297 54.868 45.383 54.868h478.149c25.07 0 45.367-24.537 45.367-54.868s-20.297-54.868-45.367-54.868H415.15zM130.701 658.281c-25.086 0-45.367 24.521-45.367 54.851S105.614 768 130.701 768H893.3c25.07 0 45.367-24.537 45.367-54.868s-20.297-54.851-45.367-54.851H130.701z"  horiz-adv-x="1024" />

    
    <glyph glyph-name="sort" unicode="&#59008;" d="M423 783c-0.1 0.1-0.2 0.3-0.4 0.4l-1.9 1.9c-29.3 29.3-76.4 30.1-106.7 1.9L156.7 640.3c-0.6-0.6-1.2-1.2-1.9-1.8-29-29-29-75.9 0-104.9l1.9-1.9c29.3-29.3 76.4-30.1 106.7-1.9l43.8 40.9v-519.5c0-42.4 34.4-76.8 76.8-76.8s76.8 34.4 76.8 76.8V716.8c0 28.2-15.2 52.8-37.8 66.2zM869.1 248.5l-1.9 1.9c-29.3 29.3-76.4 30.1-106.7 1.9l-43.8-40.9V730.9c0 42.4-34.4 76.8-76.8 76.8s-76.8-34.4-76.8-76.8v-665.6c0-28.2 15.2-52.8 37.8-66.2 0.1-0.1 0.2-0.3 0.4-0.4l1.9-1.9c29.3-29.3 76.4-30.1 106.7-1.9l157.3 146.8c0.6 0.6 1.2 1.2 1.9 1.8 29 29.1 29 76.1 0 105z"  horiz-adv-x="1024" />

    
    <glyph glyph-name="sign_in" unicode="&#59009;" d="M85.3 600.2v-517.8c0-69 56.7-125.1 126.4-125.1h600.4c69.7 0 126.4 56.1 126.4 125.1V600.2c-0.1 69-56.8 125.1-126.5 125.1h-49.5v-59h57.9c32.8 0 58.3-35.5 58.3-66v-526.2c0-31.8-26.2-57.7-58.3-57.7H203.3c-32.2 0-58.3 25.9-58.3 57.7V600.2c0 30.5 25.5 66 58.3 66h57.9v59h-49.5c-33.8 0-65.5-12.9-89.3-36.5-23.9-23.6-37.1-55-37.1-88.5M695.9 810.7c-17.5 0-30.3-13.4-30.3-31.8v-107.1c0-18.4 12.7-31.8 30.3-31.8 17.3 0 29.4 13.1 29.4 31.8V778.9c0 18.7-12.1 31.8-29.4 31.8M384 665.6h256v59.7H384zM426.7 213.3zM298.7 380.8c0-8.1 3.5-15.9 10-22.5l130.9-135.1c6.2-6.2 14.7-9.9 23.8-9.9s17.6 3.6 24 10.2l227.9 234.8c6.6 6.7 10 14.5 10 22.6 0 8.1-3.5 15.9-10 22.6-5.3 5.5-12.2 8.4-20.1 8.4-9.9 0-20.4-4.8-28.1-12.7L463.4 289.3 356.8 399.1c-7.7 8-18.2 12.8-28.1 12.8-7.8 0-14.8-2.9-20-8.4-6.6-6.8-10.1-14.6-10-22.7M329 810.7c-17.5 0-30.3-13.4-30.3-31.8v-107.1c-0.1-9.5 3.3-18 9.5-23.9 5.4-5.2 12.6-7.9 20.8-7.9 17.3 0 29.4 13.1 29.4 31.8V778.9c0 18.7-12.1 31.8-29.4 31.8"  horiz-adv-x="1024" />

    
    <glyph glyph-name="shutdown" unicode="&#59010;" d="M895.849 895.999C967.176 895.999 1025 838.176 1025 766.847v-621.598c0-71.328-57.824-129.151-129.151-129.151H130.155c-71.328 0-129.152 57.823-129.152 129.151V766.846C1.003 838.175 58.826 895.998 130.155 895.998h765.694z m0-76.801H130.155c-28.8 0-52.32-23.424-52.32-52.352v-621.598c0-28.799 23.424-52.352 52.32-52.352h765.694c28.8 0 52.352 23.424 52.352 52.352V766.846c-0.001 28.801-23.425 52.352-52.352 52.352z m-230.89-216.775c40.576-40.576 62.912-94.529 62.912-151.936 0-57.408-22.336-111.391-62.912-151.936-40.575-40.575-94.527-62.912-151.935-62.912s-111.391 22.337-151.967 62.912c-40.544 40.545-62.88 94.529-62.88 151.936 0 57.408 22.336 111.36 62.88 151.936 10.4 10.399 28.576 10.399 38.976 0 10.752-10.72 10.752-28.224 0-38.944-30.176-30.24-46.816-70.368-46.816-112.992 0-42.688 16.64-82.815 46.816-112.992 30.208-30.175 70.304-46.784 112.991-46.784 42.656 0 82.784 16.609 112.992 46.784 30.176 30.177 46.784 70.304 46.784 112.992 0 42.656-16.608 82.784-46.784 112.992-10.752 10.72-10.752 28.224 0 38.944 10.4 10.399 28.544 10.399 38.943 0z m321.67-730.422H39.432C18.28-127.999 1-110.719 1-89.598c0 21.12 17.28 38.399 38.432 38.399h947.197c21.12 0 38.368-17.28 38.368-38.399 0-21.121-17.248-38.401-38.368-38.401zM513.021 430.673c-14.976 0-27.168 12.192-27.168 27.167V649.327c0 14.944 12.192 27.136 27.168 27.136 14.976 0 27.168-12.192 27.168-27.136V457.84c0-14.976-12.192-27.167-27.168-27.167z"  horiz-adv-x="1025" />

    
    <glyph glyph-name="sign_in_together" unicode="&#59011;" d="M716.4 587.4c-13.2 0-25.7 5.1-35.2 14.3-9.5 9.3-14.7 21.6-14.7 34.7V795.8c0 27 22.4 49 49.9 49h0.2c23.4 0 43.9-16.4 48.7-39.1 0.7-3.4 1.1-6.6 1.1-9.9v-159.4c0-13-5.4-25.6-14.6-34.7-9.2-9.1-22-14.3-35.1-14.3h-0.3z m-444.6 17.4c-7.8 9.2-11.9 20-11.9 31.5V795.7c0 27 22.4 49.1 50 49.1 4.3-0.1 8.4-0.7 12.4-1.7 8.4-2 16.5-6.4 22.7-12.6 2.4-2.2 4.5-4.8 6.3-7.5 5.4-7.8 8.4-17.3 8.4-27.2v-159.5c0-13.2-5.2-25.5-14.6-34.7-9.3-9.1-22.2-14.3-35.3-14.3-14.5-0.1-28.3 6.3-38 17.5z m750.2 35l2-589.1c0-69.1-58.2-127.4-127.1-127.4H126.8c-21.1 0-42 5.3-60.4 15.5C26-39.3 0 4.6 0 50.6V637.9c0 13.4 2.6 26.4 4.8 34.8 14.3 55.4 69.4 94.1 134.2 94.1h29.7c27.1 0 49.2-21.7 49.2-48.4 0-13-5.1-25.2-14.4-34.3-9.1-9-21.8-14.2-34.7-14.2H139c-18.1 0-39.2-8.3-39.2-31.9v-587.4c0-13.9 10.9-28.9 27.2-28.9h769.8c15 0 27.3 13 27.3 28.9v49c0.1 94.5-0.1 189-0.2 283.5-0.1 85.1-0.2 170.1-0.2 255.2-1 24.6-18.8 29.4-58 29.4h-4.3l-7.2-0.1c-27.2 0-49.3 21.8-49.3 48.6s22.1 48.6 49.3 48.6h29.7c20.5 0 44.7-1.9 70.6-15.6 41.7-22.1 65.7-60.8 67.6-109l-0.1-0.4z m-569.6 27.7c-17.5 0-33.7 9.2-42.5 24.1-8.9 15.1-8.9 33.8 0 48.9 8.8 14.8 25 24.1 42.6 24.1H571c27.1 0 49.2-21.8 49.2-48.6s-22-48.6-49.2-48.6H453l-0.6 0.1z m-166-369c0.4 12.8 5.9 25.2 15.4 33.9 19.7 18.4 50.9 17.4 69.4-1.9l65.1-67.7 219.9 184.9c10 8.4 22.8 12.6 35.8 11.4 13.2-1 25-7 33.5-16.9 17.5-20.3 15.1-51-5.5-68.4L464.7 159.1c-9.2-7.8-20.6-11.7-31.9-11.7-13 0-26.1 5.2-35.7 15.2l-97.2 101.1c-8.9 9.4-13.8 22-13.5 34.8z"  horiz-adv-x="1024" />

    
    <glyph glyph-name="sspm" unicode="&#59012;" d="M512.99 147.741c16.095 0 29.12 13.023 29.12 29.087V525.562l144.61-144.609c10.496-10.529 27.519-10.529 38.046 0 10.496 10.495 10.496 27.519 0 38.014L530.885 612.85c-9.856 9.887-25.887 9.887-35.774 0L301.26 418.967c-10.527-10.495-10.527-27.519 0-38.014 10.463-10.529 27.519-10.529 38.015 0l144.629 144.629v-348.754c0-16.064 13.023-29.087 29.086-29.087zM39.399 819.188h947.202c21.12 0 38.398 17.28 38.398 38.399S1007.72 895.985 986.601 895.985H39.399C18.28 895.986 1 878.707 1 857.588s17.28-38.4 38.399-38.4zM986.602-51.188h-41.686V819.185h-76.798v-870.374H157.87V819.185H81.04v-870.374H39.4C18.28-51.188 1-68.467 1-89.586s17.28-38.399 38.399-38.399h947.202c21.12 0 38.398 17.28 38.398 38.399s-17.278 38.398-38.397 38.398z"  horiz-adv-x="1025" />

    
    <glyph glyph-name="start" unicode="&#59013;" d="M512.1 820.7c-240.9 0-436.8-196-436.8-436.8s196-436.8 436.8-436.8S948.9 143 948.9 383.9 753 820.7 512.1 820.7z m0-771.2c-184.4 0-334.4 150-334.4 334.4s150 334.4 334.4 334.4c184.4 0 334.4-150 334.4-334.4s-150-334.4-334.4-334.4zM649.5 416.8l-2.9 2.6L508 512.5l-3.6 2c-1.6 0.8-16.3 7.6-32.9 7.6-32.3 0-54.9-25-54.9-60.7V275l2-9.2c6.6-21 25.4-42.3 52.7-42.3 9.7 0 19.2 2.7 29.8 8.7l145.4 89.7 2.9 2c39.2 25.9 39.2 66 0.1 92.9z"  horiz-adv-x="1024" />

    
    <glyph glyph-name="sxpm" unicode="&#59014;" d="M944.974-51.201h41.658c21.12 0 38.368-17.28 38.368-38.4s-17.249-38.4-38.368-38.4h-947.2c-21.152 0-38.432 17.28-38.432 38.4s17.28 38.4 38.432 38.4h41.639v870.4h76.8v-870.4h710.303v870.4h76.8v-870.4zM542.11 242.408l144.637 144.637c10.496 10.528 27.52 10.528 38.016 0 10.527-10.497 10.527-27.52 0-38.016L530.907 155.141c-9.856-9.888-25.889-9.888-35.776 0L301.243 349.029c-10.496 10.496-10.496 27.52 0 38.016 10.529 10.528 27.52 10.528 38.048 0l144.644-144.643V591.176c0 16.064 13.023 29.088 29.087 29.088 16.065 0 29.088-13.024 29.088-29.088v-348.768zM986.632 819.201h-947.2C18.28 819.201 1 836.482 1 857.601c0 21.12 17.28 38.4 38.432 38.4h947.2c21.12 0 38.368-17.28 38.368-38.4 0-21.119-17.249-38.4-38.368-38.4z"  horiz-adv-x="1025" />

    
    <glyph glyph-name="the_server" unicode="&#59015;" d="M839.4 729.4c-25.9 0-47-20.4-47-45.4s21.1-45.4 47-45.4h4.8v0.3c23.6 2.3 42.1 21.7 42.1 45.1 0 25-21 45.4-46.9 45.4M916.7 720.1v-74.5c0-11.8-15.8-33.5-38.4-33.5h-740c-28.7 0-36.3 24.2-36.3 38.4v67.1c0 11.8 15.7 35.4 36.3 35.4h740.1c21.8 0 37.2-13.4 38.3-32.9m-26.6 90.6H131.8c-49.1 0-89.1-38.6-89.1-86v-81.3c0-47.4 40-86 89.1-86h758.3c49.1 0 89.1 38.6 89.1 86v81.3c-0.1 47.4-40 86-89.1 86M839.5 151.7c-25.9 0-47-20.4-47-45.4s21.1-45.4 47-45.4h4.8v0.3c23.6 2.3 42.1 21.7 42.1 45.1 0 25-21 45.4-46.9 45.4M916.8 140v-72.1c0-11.8-15.8-33.5-38.4-33.5H138.3c-28.7 0-36.3 24.2-36.3 38.4V140c0 11.8 15.7 35.3 36.3 35.3h740.1c22.6 0 38.4-14.5 38.4-35.3M890 233H131.8c-49.1 0-89.1-38.6-89.1-86v-81.3c0-47.4 40-86 89.1-86H890c49.1 0 89.1 38.6 89.1 86V147c0 47.4-39.9 86-89.1 86M839.4 440.5c-25.9 0-47-20.4-47-45.4s21.1-45.4 47-45.4h4.8v0.3c23.6 2.3 42.1 21.7 42.1 45.1 0 25.1-21 45.4-46.9 45.4M916.7 431.2v-74.5c0-11.8-15.8-33.5-38.4-33.5h-740c-28.7 0-36.3 24.2-36.3 38.4v67.1c0 11.8 15.7 35.4 36.3 35.4h740.1c21.8 0.1 37.2-13.4 38.3-32.9m-26.6 90.6H131.8c-49.1 0-89.1-38.6-89.1-86v-81.3c0-47.4 40-86 89.1-86h758.3c49.1 0 89.1 38.6 89.1 86v81.3c-0.1 47.4-40 86-89.1 86"  horiz-adv-x="1024" />

    
    <glyph glyph-name="statistics" unicode="&#59016;" d="M307.2 332.8h102.4V128H307.2V332.8zM512 742.4h102.4V128H512V742.4z m204.8-204.8h102.4V128H716.8V537.6zM99.2-25.6c-26.5 0-48 22.9-48 51.2V742.4c0 28.3 21.5 51.2 48 51.2s48-22.9 48-51.2v-665.6h777.6c26.5 0 48-22.9 48-51.2 0-28.3-21.5-51.2-48-51.2H99.2z"  horiz-adv-x="1024" />

    
    <glyph glyph-name="template" unicode="&#59017;" d="M895.7 382.5H547.9c-13.8 0-27.2-15.7-27.2-31.8 0-23.1 13.3-38.7 33.1-38.7h347.8c19.8 0 33.1 15.5 33.1 38.7l-0.4 1.9c-8 18.8-22.4 29.9-38.6 29.9M906.1 810.7H117.9c-19.5 0-32.6-11.8-32.6-29.3v-240c0-17.5 13.1-29.3 32.6-29.3h788.2c19.5 0 32.6 11.8 32.6 29.3v240c0 17.5-13.1 29.3-32.6 29.3z m-32.6-240.1H144.7V752h728.8v-181.4zM907.9 42.7H585.4c-18.4 0-30.7-17.1-30.7-42.7 0-25.5 12.3-42.7 30.7-42.7h322.5c18.4 0 30.7 17.1 30.7 42.7 0.1 25.5-12.3 42.7-30.7 42.7M907.9 213.3H585.4c-18.4 0-30.7-18.8-30.7-46.8l0.4-2.3c5.7-17.4 17.7-36.2 30.4-36.2H908c18.4 0 30.7 18.8 30.7 46.8 0 18.6-11.8 38.5-30.8 38.5M426.3 358.7c-5.8 12.2-18 25.3-31 25.3H116.7c-19.4 0-31.3-14-31.3-26.9v-367c0-19.6 12.6-32.7 31.3-32.7h278.7c18.7 0 31.3 13.2 31.3 32.7v367l-0.4 1.6zM364 17H142.4V324.3H364V17z"  horiz-adv-x="1024" />

    
    <glyph glyph-name="user" unicode="&#59018;" d="M938.7 69.5c0-173.7-191-197.5-426.7-197.5-235.6 0-426.7 23.8-426.7 197.5S276.4 384 512 384c235.7 0 426.7-140.8 426.7-314.5zM776.1 659.7c0-130.5-118.3-236.3-264.1-236.3-145.9 0-264.1 105.8-264.1 236.3S366.1 896 512 896c145.9 0 264.1-105.8 264.1-236.3z"  horiz-adv-x="1024" />

    
    <glyph glyph-name="time" unicode="&#59019;" d="M512 384h153.6c28.3 0 51.2-22.9 51.2-51.2 0-28.3-22.9-51.2-51.2-51.2H460.8c-28.3 0-51.2 22.9-51.2 51.2v256c0 28.3 22.9 51.2 51.2 51.2s51.2-22.9 51.2-51.2V384z m0-358.4c197.9 0 358.4 160.5 358.4 358.4S709.9 742.4 512 742.4 153.6 581.9 153.6 384 314.1 25.6 512 25.6z m0-102.4C257.5-76.8 51.2 129.5 51.2 384S257.5 844.8 512 844.8 972.8 638.5 972.8 384 766.5-76.8 512-76.8z"  horiz-adv-x="1024" />

    
    <glyph glyph-name="upgrade" unicode="&#59020;" d="M684.4 360.3L520.8 516.2c-6.7 6.4-15.8 10-25.2 10-9.5 0-18.6-3.6-25.2-10L303.1 356.9c-14-13.3-14-34.8 0-48.1 6.9-6.6 16.1-10 25.2-10 9.2 0 18.3 3.3 25.2 10l104.1 99v-416.5c0-18.7 16-34 35.7-34 19.7 0 35.7 15.3 35.7 34V412.1l104.9-99.9c14-13.3 36.5-13.3 50.5 0s14 34.8 0 48.1M792.7 106.5h-122c-19.4 0-35.2 15.2-35.2 34 0 18.7 15.8 34 35.2 34h122c87.3 0 158.2 68.4 158.2 152.6 0 40.6-16.3 78.8-46 107.6-29.7 28.7-69.2 44.7-111.1 45-18.3 0.1-33.5 13.8-34.9 31.5-4.6 60.1-32.4 115.9-78.3 157.3-46.1 41.5-106.3 64.4-169.4 64.4-58.7 0-115.5-20.1-160.2-56.5-44.2-36-74.1-86-84.3-140.6-2.9-15.5-16.5-27.1-32.8-28-91.7-4.8-163.5-77.9-163.5-166.5 0-43.1 16.9-84 47.7-115.1 30.5-30.9 71.4-49.2 115.3-51.6h110c19.4 0 35.2-15.2 35.2-34 0-18.7-15.8-34-35.2-34H230.8c-62.3 3.1-120.5 28.8-163.7 72.6C23.9 223.1 0 280.5 0 341.2c0 115.9 87.3 213 203.2 231.5 16.7 60.2 52.4 114.6 102.2 155.3 57.4 46.8 130.4 72.6 205.7 72.6 81 0 158.2-29.3 217.4-82.6 51.4-46.2 85.2-106.7 96.8-172.7 48.9-6.7 94-28.5 129.4-62.9 42.9-41.7 66.4-96.8 66.4-155.5 0-58.9-23.8-114.4-67-156-43.1-41.6-100.3-64.4-161.4-64.4"  horiz-adv-x="1024" />

    
    <glyph glyph-name="upload" unicode="&#59021;" d="M266.6 477.1L459.5 670v-465.2c0-28.3 22.9-51.2 51.2-51.2 28.3 0 51.2 22.9 51.2 51.2V670l192.9-192.9c20-20 52.4-20 72.4 0s20 52.4 0 72.4L573.8 802.9c-11.4 11.4-27.1 16.6-42.8 14.6l-8.9 0.4c-3.7 0.8-7.5 1.3-11.4 1.3-3.9 0-7.7-0.4-11.4-1.3l-8.9-0.4c-15.7 2-31.4-3.2-42.8-14.6L194.2 549.5c-20-20-20-52.4 0-72.4s52.4-20 72.4 0zM921.6 76.8H102.4c-28.3 0-51.2-22.9-51.2-51.2 0-28.3 22.9-51.2 51.2-51.2h819.2c28.3 0 51.2 22.9 51.2 51.2 0 28.3-22.9 51.2-51.2 51.2z"  horiz-adv-x="1024" />

    
    <glyph glyph-name="use" unicode="&#59022;" d="M767.4 384L256.6 685.5v-603L767.4 384z m50.5-94.2L307.1-11.7c-49.6-29.3-112.4-10.8-140.2 41.2-8.7 16.2-13.2 34.4-13.2 53v603c0 59.7 46.1 108.1 103 108.1 17.7 0 35.1-4.8 50.5-13.9L818 478.2c49.5-29.3 67-95.2 39.2-147.2-9.3-17.2-22.9-31.5-39.3-41.2z"  horiz-adv-x="1024" />

    
    <glyph glyph-name="ssht" unicode="&#59023;" d="M39.399 819.19h41.645v-870.371h76.827V819.19h710.243v-870.371h76.798V819.19H986.6c21.113 0 38.399 17.272 38.399 38.398 0 21.128-17.287 38.399-38.399 38.399H39.399C18.272 895.988 1 878.716 1 857.588 1 836.462 18.272 819.19 39.399 819.19zM715.727 239.412c9.848 0 17.814 7.966 17.814 17.799V470.636l58.389-58.39c6.414-6.444 16.836-6.444 23.28 0 6.431 6.431 6.431 16.851 0 23.265l-88.527 88.529c-6.039 6.054-15.842 6.054-21.895 0l-88.514-88.529c-6.444-6.414-6.444-16.834 0-23.265 6.401-6.444 16.836-6.444 23.25 0l58.405 58.393v-213.428c-0.001-9.833 7.965-17.799 17.798-17.799zM986.601-51.19H39.399C18.272-51.19 1-68.462 1-89.59c0-21.126 17.272-38.398 38.399-38.398H986.6c21.113 0 38.399 17.272 38.399 38.398 0.001 21.128-17.286 38.4-38.398 38.4zM510.77 270.618c29.122 30.206 45.159 70.473 45.159 113.374 0 11.491-9.697 21.188-21.186 21.188-11.474 0-21.173-9.697-21.173-21.188 0-68.215-55.505-123.719-123.72-123.719-68.228 0-123.719 55.504-123.719 123.719 0 11.491-9.698 21.188-21.188 21.188-11.474 0-21.173-9.697-21.173-21.188 0-43.307 16.068-83.242 44.965-112.109 25.916-29.033 61.182-47.389 99.928-52.178v-31.878h-27.121c-11.474 0-21.171-9.698-21.171-21.173 0-11.489 9.697-21.188 21.171-21.188h96.601c11.489 0 21.186 9.698 21.186 21.188 0 11.474-9.697 21.173-21.186 21.173h-27.121v30.989c39.092 5.679 73.486 23.522 99.748 51.802zM389.849 290.364c51.621 0 93.633 41.997 93.633 93.633V528.904c0 51.62-42.012 93.618-93.633 93.618-51.635 0-93.633-41.999-93.633-93.618v-144.906c0-51.637 41.999-93.634 93.633-93.634z m-51.273 238.54c0 28.265 22.995 51.274 51.273 51.274 28.265 0 51.274-23.009 51.274-51.274v-144.906c0-28.265-23.009-51.274-51.274-51.274-28.279 0-51.273 23.01-51.273 51.274V528.904z"  horiz-adv-x="1025" />

    
    <glyph glyph-name="throwing_screen" unicode="&#59024;" d="M358.4-25.6h307.2L512 179.2zM879.8 793.6H144.2C64.7 793.5 0.1 731.5 0 655.4v-440.3C0.1 139 64.7 76.9 144.2 76.8h166.6c26.3 0 47.7 20.5 47.7 45.7 0 25.2-21.4 45.7-47.7 45.7H144.2c-26.9 0-48.8 21.1-48.9 46.9V655.4c0 25.8 21.9 46.8 48.9 46.8h735.6c26.9 0 48.9-21 48.9-46.8V215c0-25.8-22-46.8-48.9-46.9H717.6c-26.3 0-47.7-20.5-47.7-45.7 0-25.2 21.4-45.7 47.7-45.7h162.2c79.5 0.1 144.2 62.1 144.2 138.3V655.4c-0.1 76.1-64.8 138.1-144.2 138.2zM510.4 358.3c56.1 0 99.6-28.7 133-89.1l44.8 24.8c-42 76-102.1 115.5-177.8 115.5-76 0-135-39.8-174.4-116.2l45.5-23.5c31 60.1 73.1 88.5 128.9 88.5zM772.1 395.3l47.1 28.6C737.5 533 633.8 588.8 509.9 588.8c-124 0-226.5-55.9-305.1-165.3l47.7-27.9c68.7 95.5 153.7 141.9 257.4 141.9 103.9 0.1 190.6-46.5 262.2-142.2z"  horiz-adv-x="1024" />

    
    <glyph glyph-name="tcby" unicode="&#59025;" d="M985.628037 55.798821c-21.750979 0-39.369962-17.639983-39.369961-39.392962 0-36.185965-29.477971-65.639936-65.640936-65.639936h-735.189282c-36.185965 0-65.662936 29.453971-65.662936 65.639936V751.596141c0 36.162965 29.476971 65.616936 65.662936 65.616936h735.189282c36.162965 0 65.640936-29.453971 65.640936-65.616936 0-21.752979 17.617983-39.393962 39.369961-39.393962 21.752979 0 39.370962 17.640983 39.370962 39.393962C1024.953999 831.308063 960.331062 895.932 880.61714 896h-735.189282C65.691936 895.932 1.067999 831.308063 0.999999 751.596141v-735.191282c0.068-79.712922 64.691937-144.359859 144.427859-144.404859h735.189282c79.712922 0.045 144.336859 64.691937 144.381859 144.404859 0 21.753979-17.617983 39.393962-39.370962 39.393962zM149.833854 383.9965c0-28.143973 22.813978-50.93595 50.93595-50.93595 28.120973 0 50.93495 22.791978 50.93495 50.93595s-22.813978 50.93595-50.93495 50.93595c-28.121973 0-50.93595-22.791978-50.93595-50.93595zM653.070362 171.817707a39.306962 39.306962 0 0 1 11.541989-27.805973 39.246962 39.246962 0 0 1 27.826973-11.564988 39.340962 39.340962 0 0 1 27.851973 11.564988l239.973765 239.995766-239.973765 239.973766c-15.404985 15.381985-40.341961 15.381985-55.723946 0-15.404985-15.381985-15.404985-40.318961 0-55.723946l144.923858-144.923858H359.359649c-21.752979 0-39.393962-17.640983-39.393961-39.393962 0-21.750979 17.640983-39.369962 39.393961-39.369961h450.19956L664.612351 199.62268a39.269962 39.269962 0 0 1-11.541989-27.804973z"  horiz-adv-x="1025" />

    
    <glyph glyph-name="video" unicode="&#59026;" d="M512 743.5c172.5 0 312.9-132.6 312.9-295.5S684.5 152.5 512 152.5 199.1 285.1 199.1 448 339.5 743.5 512 743.5m0-658.2c211.7 0 384 162.7 384 362.7S723.7 810.7 512 810.7 128 648 128 448s172.3-362.7 384-362.7M512 484.3c55.3 0 100.3-45 100.3-100.3s-45-100.3-100.3-100.3-100.3 45-100.3 100.3 45 100.3 100.3 100.3m0-271c94.1 0 170.7 76.6 170.7 170.7S606.1 554.7 512 554.7 341.3 478.1 341.3 384 417.9 213.3 512 213.3M512 597.3c23.6 0 42.7 19.1 42.7 42.7s-19.1 42.7-42.7 42.7-42.7-19.1-42.7-42.7 19.1-42.7 42.7-42.7M816.2 42.7H207.8c-20.4 0-37.1-19.2-37.1-42.7 0-23.5 16.7-42.7 37.1-42.7h608.4c20.4 0 37.1 19.2 37.1 42.7 0 23.5-16.7 42.7-37.1 42.7"  horiz-adv-x="1024" />

    
    <glyph glyph-name="xsj" unicode="&#59027;" d="M512 128.111l-512 512h1024z"  horiz-adv-x="1024" />

    
    <glyph glyph-name="xsj1" unicode="&#59028;" d="M767.972503 384.055994l-511.945006-511.945006v1023.890012z"  horiz-adv-x="1024" />

    
    <glyph glyph-name="vote" unicode="&#59029;" d="M858 662.5H734.8v30.2l0.1 4.9c0 0.3-0.1 0.6-0.1 1V748c0 31.4-25.2 56.9-56.3 56.9H327.2c-31.1 0-56.3-25.5-56.3-56.9v-85.4H161.6c-20.1 0-39.2-8.1-53.7-22.8-14.5-14.7-22.6-34-22.6-54.3v-550.9c0-42.4 34.3-77.1 76.3-77.1H858c42 0 76.3 34.7 76.3 77.1V585.4c0 42.4-34.3 77.1-76.3 77.1z m-531.2 68.2c0 9.5 7.6 17.2 17 17.2H661c9.4 0 17-7.7 17-17.2v-292.8H326.8V730.7z m551.3-696.3c0-12.7-13-12.7-20-12.7H161.6c-9.3 0-17.6 8.1-18.5 9l-1.5 1.5V585.4c0 12.7 13 12.7 20 12.7h108.9v-161.9h-57c-12 0-24.4-11.9-24.4-31.9 0-19.2 12.4-30.7 24.4-30.7h577.9c19.3 0 31.8 12.6 31.8 32.2 0 19.5-12.5 32.2-31.8 32.2h-57V598.1h123.7c9.3 0 17.6-8.1 18.5-9l1.5-1.5v-553.2zM603.4 683.9c-11.1 8.1-26.1 5.9-37.5-5.4l-72-94.5-38.3 38.7c-4.9 3.9-12.2 6.3-19.4 6.3-6.9 0-13.7-2.2-18.2-7.2-5.5-6.2-8.2-14.3-7.4-22.4 0.8-7.4 4.3-13.8 10-18l51.4-47.5c14-11.7 35.1-9.9 47 4.4l87.8 104.9c5.1 5.1 7.4 12.2 6.7 20.1-0.7 8.4-4.7 16.7-10.1 20.6z"  horiz-adv-x="1024" />

    
    <glyph glyph-name="xsrm" unicode="&#59030;" d="M337.467044 381.650229c37.996289 0 68.793282 30.796992 68.793282 68.793282 0 37.896299-30.796992 68.793282-68.793282 68.793282-37.896299 0-68.793282-30.896983-68.793282-68.793282s30.796992-68.793282 68.793282-68.793282z m79.092276-41.795918c51.694952-22.197832 90.791134-64.693682 109.089347-116.588614 7.199297-20.298018-8.69915-41.495948-30.297041-41.495948h-3.799629c-13.698662 0-25.29753 8.899131-29.997071 21.697881-18.998145 50.695049-67.393419 85.691632-124.187872 85.691632s-105.189728-34.996582-124.087882-85.691632c-4.799531-12.79875-16.398399-21.697881-29.997071-21.697881h-3.799629c-21.497901 0-37.396348 21.19793-30.197051 41.495948 18.298213 51.894932 57.394395 94.390782 109.189337 116.588614-45.195586 32.296846-66.693487 89.29128-52.694854 144.28591 17.598281 69.093253 86.091593 114.288839 159.284445 99.590274 39.996094-7.999219 74.892686-34.396641 93.29089-70.693096 31.796895-62.793868 11.398887-135.286788-41.795919-173.183088z m430.557954 80.49214H659.335612c-18.798164 0-31.296944 12.498779-31.296944 31.296943s12.498779 31.296944 31.296944 31.296944h187.781662c18.798164 0 31.296944-12.498779 31.296943-31.296944s-12.498779-31.296944-31.296943-31.296943zM721.929499 270.061127h-62.593887c-18.798164 0-31.296944 12.498779-31.296944 31.296944s12.498779 31.296944 31.296944 31.296943H721.929499c18.798164 0 31.296944-12.498779 31.296944-31.296943 0-18.698174-12.498779-31.296944-31.296944-31.296944zM77.792403 622.926667c0-21.19793-17.19832-38.39625-38.39625-38.39625S0.999902 601.728737 0.999902 622.926667V728.516356C0.999902 821.007324 75.992579 896 168.483547 896h105.589688c21.19793 0 38.39625-17.19832 38.39625-38.39625s-17.19832-38.39625-38.39625-38.396251H168.483547c-50.095108 0-90.691143-40.596036-90.691144-90.791133v-105.489699zM751.826579 819.207499c-21.19793 0-38.39625 17.19832-38.39625 38.396251S730.62865 896 751.826579 896h105.489699C949.807245 896 1024.899912 821.007324 1024.899912 728.416366v-105.589689c0-21.19793-17.19832-38.39625-38.39625-38.39625s-38.39625 17.19832-38.396251 38.39625V728.516356c0 50.095108-40.596036 90.791134-90.791133 90.791134l-105.489699-0.099991zM274.073235-51.107509c21.19793 0 38.39625-17.19832 38.39625-38.39625s-17.19832-38.39625-38.39625-38.396251H168.583537C76.092569-127.90001 0.999902-52.907333 0.999902 39.683625V145.273313c0 21.19793 17.19832 38.39625 38.396251 38.396251s38.39625-17.19832 38.39625-38.396251v-105.589688c0-50.095108 40.596036-90.791134 90.791134-90.791134h105.489698z m674.034176 196.280832c0 21.19793 17.19832 38.39625 38.396251 38.39625s38.39625-17.19832 38.39625-38.39625v-105.589689c0-92.490968-74.992676-167.583634-167.583634-167.583634H751.826579c-21.19793 0-38.39625 17.19832-38.39625 38.39625s17.19832 38.39625 38.39625 38.396251h105.489699c50.095108 0 90.791134 40.596036 90.791133 90.791133V145.173323z"  horiz-adv-x="1025" />

    
    <glyph glyph-name="xjht" unicode="&#59031;" d="M723.253 530.196c-9.848 0-17.814-7.966-17.814-17.799v-213.424l-58.389 58.389c-6.416 6.446-16.836 6.446-23.281 0-6.429-6.429-6.429-16.851 0-23.265l88.529-88.529c6.038-6.053 15.841-6.053 21.895 0l88.514 88.529c6.444 6.414 6.444 16.836 0 23.265-6.401 6.446-16.836 6.446-23.251 0l-58.404-58.393V512.397c0 9.833-7.966 17.799-17.799 17.799zM39.399 819.19h41.645v-870.371h76.827V819.19h710.243v-870.371h76.798V819.19h41.689c21.111 0 38.398 17.272 38.398 38.398 0 21.128-17.287 38.399-38.398 38.399H39.399C18.272 895.988 1 878.716 1 857.588 1 836.462 18.272 819.19 39.399 819.19zM389.849 290.364c51.621 0 93.633 41.997 93.633 93.633V528.904c0 51.62-42.012 93.618-93.633 93.618-51.635 0-93.632-41.999-93.632-93.618v-144.906c0-51.637 41.998-93.634 93.632-93.634z m-51.273 238.54c0 28.265 22.995 51.274 51.273 51.274 28.265 0 51.274-23.009 51.274-51.274v-144.906c0-28.265-23.009-51.274-51.274-51.274-28.279 0-51.273 23.01-51.273 51.274V528.904zM510.77 270.618c29.122 30.206 45.16 70.473 45.16 113.374 0 11.491-9.698 21.188-21.188 21.188-11.474 0-21.173-9.697-21.173-21.188 0-68.215-55.505-123.719-123.719-123.719-68.23 0-123.72 55.504-123.72 123.719 0 11.491-9.698 21.188-21.188 21.188-11.474 0-21.173-9.697-21.173-21.188 0-43.307 16.068-83.242 44.965-112.109 25.916-29.033 61.182-47.389 99.928-52.178v-31.878h-27.121c-11.474 0-21.171-9.698-21.171-21.173 0-11.489 9.697-21.188 21.171-21.188h96.601c11.489 0 21.186 9.698 21.186 21.188 0 11.474-9.697 21.173-21.186 21.173h-27.121v30.989c39.094 5.679 73.487 23.522 99.749 51.802zM986.602-51.19H39.399C18.272-51.19 1-68.462 1-89.59c0-21.126 17.272-38.398 38.399-38.398h947.202c21.111 0 38.398 17.272 38.398 38.398 0.001 21.128-17.286 38.4-38.397 38.4z"  horiz-adv-x="1025" />

    


  </font>
</defs>
</svg>
